<?xml version="1.0" encoding="utf-8"?>
<!-- Generator: Adobe Illustrator 27.7.0, SVG Export Plug-In . SVG Version: 6.00 Build 0)  -->
<svg version="1.1" id="Layer_1" xmlns="http://www.w3.org/2000/svg" xmlns:xlink="http://www.w3.org/1999/xlink" x="0px" y="0px"
	 viewBox="0 0 31 32" style="enable-background:new 0 0 31 32;" xml:space="preserve">
<style type="text/css">
	.st0{fill:#121921;}
</style>
<g id="Layer_25">
	<path class="st0" d="M23.5,22c-0.2,0-0.5-0.1-0.6-0.2L18.3,18h-1.8c-4.4,0-8-3.6-8-8s3.6-8,8-8h6c4.4,0,8,3.6,8,8
		c0,3.6-2.5,6.8-6,7.7V21c0,0.4-0.2,0.7-0.6,0.9C23.8,22,23.6,22,23.5,22z M16.5,4c-3.3,0-6,2.7-6,6s2.7,6,6,6h2.2
		c0.2,0,0.5,0.1,0.6,0.2l3.2,2.6v-1.9c0-0.5,0.4-0.9,0.9-1c3.3-0.5,5.5-3.6,5-6.9c-0.5-2.9-2.9-5-5.8-5H16.5z"/>
	<rect x="18.5" y="9" class="st0" width="2" height="2"/>
	<rect x="13.5" y="9" class="st0" width="2" height="2"/>
	<rect x="23.5" y="9" class="st0" width="2" height="2"/>
	<path class="st0" d="M7.5,30c-0.1,0-0.3,0-0.4-0.1c-0.4-0.2-0.6-0.5-0.6-0.9v-3.3c-4.3-1.1-6.8-5.5-5.7-9.8
		c0.6-2.3,2.2-4.2,4.4-5.2c0.5-0.3,1.1-0.1,1.4,0.4c0.3,0.5,0.1,1.1-0.4,1.4c0,0-0.1,0-0.1,0.1c-3,1.4-4.4,4.9-3,7.9
		c0.8,1.9,2.6,3.2,4.6,3.5c0.5,0.1,0.9,0.5,0.9,1v1.9l3.2-2.6c0.2-0.2,0.4-0.3,0.6-0.3h2.2c1.6,0,3.2-0.7,4.3-1.8
		c0.4-0.4,1-0.4,1.4,0s0.4,1,0,1.4l0,0c-1.5,1.5-3.6,2.4-5.7,2.4h-1.8l-4.5,3.8C7.9,29.9,7.7,30,7.5,30z"/>
</g>
</svg>
