<svg xmlns="http://www.w3.org/2000/svg" xmlns:xlink="http://www.w3.org/1999/xlink" width="20" height="19.879" viewBox="0 0 20 19.879">
  <defs>
    <clipPath id="clip-path">
      <rect id="Rectangle_1812" data-name="Rectangle 1812" width="20" height="19.879" fill="#cbb5ce"/>
    </clipPath>
    <linearGradient id="linear-gradient" x2="1" y2="1" gradientUnits="objectBoundingBox">
      <stop offset="0" stop-color="#eedde6"/>
      <stop offset="0.212" stop-color="#ede0e5"/>
      <stop offset="0.377" stop-color="#e6e8e1"/>
      <stop offset="0.72" stop-color="#d7f2ce"/>
      <stop offset="1" stop-color="#bde9ee"/>
    </linearGradient>
  </defs>
  <g id="Group_4642" data-name="Group 4642" clip-path="url(#clip-path)">
    <path id="Path_19723" data-name="Path 19723" d="M20,9.171v1.638c-.008.051-.02.1-.025.153a9.584,9.584,0,0,1-1.249,3.966,9.914,9.914,0,0,1-6.916,4.93c-.232.046-.251.03-.251-.2q0-3.266,0-6.533c0-.25.008-.258.267-.259.611,0,1.222,0,1.833,0,.158,0,.231-.044.255-.212.108-.758.229-1.515.346-2.272.053-.346.053-.346-.3-.347-.722,0-1.443,0-2.165,0-.168,0-.245-.045-.242-.232.01-.6,0-1.2.006-1.794a1.391,1.391,0,0,1,1.29-1.434,12.767,12.767,0,0,1,1.383-.031c.143,0,.215-.042.213-.2-.005-.676,0-1.352,0-2.028a.179.179,0,0,0-.177-.208A10.6,10.6,0,0,0,11.553,4a3.243,3.243,0,0,0-2.664,1.82,4.673,4.673,0,0,0-.418,2.045c-.01.643-.008,1.287,0,1.931,0,.186-.058.251-.245.249-.682-.008-1.365,0-2.048-.006-.183,0-.252.052-.25.244.009.773,0,1.547,0,2.321,0,.258.007.266.26.267h1.97c.305,0,.306,0,.306.3q0,3.227,0,6.455c0,.039,0,.078,0,.117.008.115-.05.152-.155.132-.185-.036-.37-.07-.553-.112A10,10,0,0,1,11.67.158a9.761,9.761,0,0,1,7.945,7.027A10.265,10.265,0,0,1,20,9.171" transform="translate(0 0)" fill="url(#linear-gradient)"/>
  </g>
</svg>
