<svg id="Component_2_3" data-name="Component 2 – 3" xmlns="http://www.w3.org/2000/svg" xmlns:xlink="http://www.w3.org/1999/xlink" width="20.008" height="20.014" viewBox="0 0 20.008 20.014">
  <defs>
    <linearGradient id="linear-gradient" x1="0.5" x2="0.5" y2="1" gradientUnits="objectBoundingBox">
      <stop offset="0" stop-color="#eedde6"/>
      <stop offset="0.212" stop-color="#ede0e5"/>
      <stop offset="0.377" stop-color="#e6e8e1"/>
      <stop offset="0.72" stop-color="#d7f2ce"/>
      <stop offset="1" stop-color="#bde9ee"/>
    </linearGradient>
    <clipPath id="clip-path">
      <rect id="Rectangle_1802" data-name="Rectangle 1802" width="20.008" height="20" fill="url(#linear-gradient)"/>
    </clipPath>
  </defs>
  <rect id="Rectangle_1804" data-name="Rectangle 1804" width="20" height="20" transform="translate(0 0.014)" fill="none"/>
  <g id="Component_25_1" data-name="Component 25 – 1">
    <g id="Group_4622" data-name="Group 4622" clip-path="url(#clip-path)">
      <path id="Path_19714" data-name="Path 19714" d="M363.126,94.531a13.862,13.862,0,0,1-.3,1.687,10.089,10.089,0,0,1-2.077,3.979c-.093.11-.153.125-.261.017q-1.659-1.668-3.326-3.327a.171.171,0,0,1-.026-.265,4.815,4.815,0,0,0,.969-2.814,4.759,4.759,0,0,0-.926-2.943c-.119-.164-.1-.253.037-.387q1.622-1.607,3.233-3.226c.173-.173.174-.173.336.021a9.891,9.891,0,0,1,2.315,5.505.926.926,0,0,0,.025.114Z" transform="translate(-343.118 -83.716)" fill="url(#linear-gradient)"/>
      <path id="Path_19715" data-name="Path 19715" d="M95.459,0a14.152,14.152,0,0,1,1.667.294,10.054,10.054,0,0,1,4,2.082c.109.092.128.152.018.261Q99.475,4.3,97.816,5.963c-.1.1-.173.094-.281.015a4.842,4.842,0,0,0-5.757-.023.226.226,0,0,1-.357-.032Q89.8,4.287,88.163,2.666c-.135-.134-.118-.2.019-.315A10.044,10.044,0,0,1,93.55.034.815.815,0,0,0,93.819,0Z" transform="translate(-84.625)" fill="url(#linear-gradient)"/>
      <path id="Path_19716" data-name="Path 19716" d="M94.546,362.831a9.888,9.888,0,0,1-6.471-2.374c-.128-.107-.131-.171-.013-.288q1.648-1.637,3.284-3.285a.207.207,0,0,1,.326-.027,4.838,4.838,0,0,0,5.725.02c.15-.108.236-.115.373.023,1.075,1.087,2.159,2.165,3.24,3.246.172.172.171.173-.023.336a9.962,9.962,0,0,1-5.349,2.3c-.181.021-.362.036-.544.043s-.364,0-.546,0" transform="translate(-84.534 -342.833)" fill="url(#linear-gradient)"/>
      <path id="Path_19717" data-name="Path 19717" d="M0,94.073A9.918,9.918,0,0,1,2.375,87.62c.108-.129.172-.153.3-.022q1.635,1.649,3.285,3.285c.119.119.114.2.02.327a4.834,4.834,0,0,0-.013,5.725.235.235,0,0,1-.03.372q-1.63,1.614-3.244,3.243c-.135.136-.2.135-.329-.015a10.016,10.016,0,0,1-2.31-5.369A7.562,7.562,0,0,1,0,94.073" transform="translate(0 -84.088)" fill="url(#linear-gradient)"/>
    </g>
  </g>
</svg>
