<svg xmlns="http://www.w3.org/2000/svg" xmlns:xlink="http://www.w3.org/1999/xlink" width="20" height="20.002" viewBox="0 0 20 20.002">
  <defs>
    <clipPath id="clip-path">
      <rect id="Rectangle_1814" data-name="Rectangle 1814" width="20" height="20.002" fill="#cbb5ce"/>
    </clipPath>
    <linearGradient id="linear-gradient" x2="1" y2="1" gradientUnits="objectBoundingBox">
      <stop offset="0" stop-color="#eedde6"/>
      <stop offset="0.212" stop-color="#ede0e5"/>
      <stop offset="0.377" stop-color="#e6e8e1"/>
      <stop offset="0.72" stop-color="#d7f2ce"/>
      <stop offset="1" stop-color="#bde9ee"/>
    </linearGradient>
    <linearGradient id="linear-gradient-2" x1="0.5" y1="0" x2="0.5" y2="1" xlink:href="#linear-gradient"/>
  </defs>
  <g id="Group_4646" data-name="Group 4646" clip-path="url(#clip-path)">
    <path id="Path_19725" data-name="Path 19725" d="M10.809,20H9.17c-.327-.047-.659-.074-.981-.144A9.9,9.9,0,0,1,.341,12.687,10.018,10.018,0,0,1,0,10.832V9.154c.008-.044.02-.089.025-.134A9.453,9.453,0,0,1,1.911,4.114,9.664,9.664,0,0,1,11.89.2a9.871,9.871,0,0,1,7.929,11.6,9.726,9.726,0,0,1-7.174,7.86A10.238,10.238,0,0,1,10.809,20m-6-10.009c0,.741,0,1.482,0,2.223A2.964,2.964,0,0,0,7.79,15.19q2.2.005,4.408,0a2.962,2.962,0,0,0,2.968-2.963q.006-2.214,0-4.427A2.962,2.962,0,0,0,12.2,4.836q-2.214-.006-4.427,0A2.964,2.964,0,0,0,4.812,7.789c0,.735,0,1.469,0,2.2" transform="translate(0 0)" fill="url(#linear-gradient)"/>
    <path id="Path_19726" data-name="Path 19726" d="M146.471,151.307c0-.721,0-1.443,0-2.164a1.986,1.986,0,0,1,2.073-2.076q2.184,0,4.368,0a1.986,1.986,0,0,1,2.082,2.088q0,2.174,0,4.348a1.988,1.988,0,0,1-2.083,2.087q-2.174,0-4.348,0a1.99,1.99,0,0,1-2.092-2.1c0-.728,0-1.456,0-2.184m4.255-2.621a2.642,2.642,0,1,0,2.649,2.63,2.631,2.631,0,0,0-2.649-2.63m3.391-.12a.6.6,0,0,0-.607-.607.629.629,0,0,0-.613.612.612.612,0,0,0,.617.6.593.593,0,0,0,.6-.605" transform="translate(-140.744 -141.315)" fill="url(#linear-gradient-2)"/>
    <path id="Path_19727" data-name="Path 19727" d="M213.961,212.8a1.762,1.762,0,1,1-1.75-1.763,1.782,1.782,0,0,1,1.75,1.763" transform="translate(-202.211 -202.787)" fill="url(#linear-gradient-2)"/>
  </g>
</svg>
