<svg xmlns="http://www.w3.org/2000/svg" xmlns:xlink="http://www.w3.org/1999/xlink" width="213.584" height="50.036" viewBox="0 0 213.584 50.036">
  <defs>
    <clipPath id="clip-path">
      <rect id="Rectangle_2212" data-name="Rectangle 2212" width="213.584" height="50.036" fill="none"/>
    </clipPath>
    <clipPath id="clip-path-3">
      <rect id="Rectangle_2180" data-name="Rectangle 2180" width="26.315" height="26.434" fill="none"/>
    </clipPath>
    <clipPath id="clip-path-4">
      <rect id="Rectangle_2181" data-name="Rectangle 2181" width="6.472" height="6.472" fill="none"/>
    </clipPath>
    <clipPath id="clip-path-6">
      <rect id="Rectangle_2183" data-name="Rectangle 2183" width="31.647" height="31.7" fill="none"/>
    </clipPath>
    <clipPath id="clip-path-7">
      <rect id="Rectangle_2184" data-name="Rectangle 2184" width="31.291" height="31.291" fill="none"/>
    </clipPath>
    <clipPath id="clip-path-8">
      <rect id="Rectangle_2185" data-name="Rectangle 2185" width="9.381" height="15.984" fill="#fff"/>
    </clipPath>
    <clipPath id="clip-path-9">
      <rect id="Rectangle_2186" data-name="Rectangle 2186" width="14.945" height="18.127" fill="#fff"/>
    </clipPath>
    <clipPath id="clip-path-10">
      <rect id="Rectangle_2187" data-name="Rectangle 2187" width="12.255" height="12.599" fill="#fff"/>
    </clipPath>
    <clipPath id="clip-path-11">
      <rect id="Rectangle_2188" data-name="Rectangle 2188" width="9.803" height="13.003" fill="none"/>
    </clipPath>
    <clipPath id="clip-path-12">
      <rect id="Rectangle_2189" data-name="Rectangle 2189" width="13.627" height="12.599" fill="none"/>
    </clipPath>
    <clipPath id="clip-path-13">
      <rect id="Rectangle_2190" data-name="Rectangle 2190" width="12.141" height="12.605" fill="none"/>
    </clipPath>
    <clipPath id="clip-path-14">
      <rect id="Rectangle_2191" data-name="Rectangle 2191" width="7.552" height="18.561" fill="none"/>
    </clipPath>
    <clipPath id="clip-path-15">
      <rect id="Rectangle_2192" data-name="Rectangle 2192" width="13.43" height="12.75" fill="none"/>
    </clipPath>
    <clipPath id="clip-path-16">
      <rect id="Rectangle_2193" data-name="Rectangle 2193" width="7.558" height="18.133" fill="none"/>
    </clipPath>
    <clipPath id="clip-path-17">
      <rect id="Rectangle_2194" data-name="Rectangle 2194" width="15.058" height="12.475" fill="none"/>
    </clipPath>
    <clipPath id="clip-path-18">
      <rect id="Rectangle_2195" data-name="Rectangle 2195" width="12.249" height="12.599" fill="none"/>
    </clipPath>
    <clipPath id="clip-path-19">
      <rect id="Rectangle_2196" data-name="Rectangle 2196" width="11.386" height="12.35" fill="none"/>
    </clipPath>
    <clipPath id="clip-path-20">
      <rect id="Rectangle_2197" data-name="Rectangle 2197" width="14.214" height="18.27" fill="none"/>
    </clipPath>
    <clipPath id="clip-path-21">
      <rect id="Rectangle_2198" data-name="Rectangle 2198" width="9.802" height="13.003" fill="none"/>
    </clipPath>
    <clipPath id="clip-path-22">
      <rect id="Rectangle_2199" data-name="Rectangle 2199" width="4.245" height="5.629" fill="none"/>
    </clipPath>
    <clipPath id="clip-path-23">
      <rect id="Rectangle_2200" data-name="Rectangle 2200" width="5.908" height="5.462" fill="none"/>
    </clipPath>
    <clipPath id="clip-path-24">
      <rect id="Rectangle_2201" data-name="Rectangle 2201" width="5.255" height="5.463" fill="none"/>
    </clipPath>
    <clipPath id="clip-path-25">
      <rect id="Rectangle_2202" data-name="Rectangle 2202" width="3.277" height="8.028" fill="none"/>
    </clipPath>
    <clipPath id="clip-path-26">
      <rect id="Rectangle_2203" data-name="Rectangle 2203" width="5.825" height="5.518" fill="none"/>
    </clipPath>
    <clipPath id="clip-path-27">
      <rect id="Rectangle_2204" data-name="Rectangle 2204" width="3.277" height="7.849" fill="none"/>
    </clipPath>
    <clipPath id="clip-path-28">
      <rect id="Rectangle_2205" data-name="Rectangle 2205" width="9.904" height="5.415" fill="none"/>
    </clipPath>
    <clipPath id="clip-path-29">
      <rect id="Rectangle_2206" data-name="Rectangle 2206" width="5.314" height="5.468" fill="none"/>
    </clipPath>
    <clipPath id="clip-path-30">
      <rect id="Rectangle_2207" data-name="Rectangle 2207" width="6.157" height="7.897" fill="none"/>
    </clipPath>
    <clipPath id="clip-path-32">
      <rect id="Rectangle_2209" data-name="Rectangle 2209" width="5.824" height="5.518" fill="none"/>
    </clipPath>
    <clipPath id="clip-path-33">
      <rect id="Rectangle_2210" data-name="Rectangle 2210" width="1.978" height="3.842" fill="none"/>
    </clipPath>
  </defs>
  <g id="Group_5257" data-name="Group 5257" transform="translate(106 77)">
    <g id="Group_5256" data-name="Group 5256" transform="translate(-106 -77)">
      <g id="Group_5255" data-name="Group 5255" clip-path="url(#clip-path)">
        <g id="Group_5254" data-name="Group 5254">
          <g id="Group_5253" data-name="Group 5253" clip-path="url(#clip-path)">
            <path id="Path_19936" data-name="Path 19936" d="M201.916,187.136a13.122,13.122,0,0,1-16.162,16.085l-1.888,7.671a21.206,21.206,0,0,0,25.662-25.8Z" transform="translate(-164.231 -165.322)" fill="#f8c242"/>
            <g id="Group_5162" data-name="Group 5162" transform="translate(4.049 4.121)" opacity="0.86" style="mix-blend-mode: normal;isolation: isolate">
              <g id="Group_5161" data-name="Group 5161">
                <g id="Group_5160" data-name="Group 5160" clip-path="url(#clip-path-3)">
                  <path id="Path_19937" data-name="Path 19937" d="M46.183,62.977A13.122,13.122,0,0,1,62.345,46.893l1.888-7.677a21.206,21.206,0,0,0-25.662,25.8Z" transform="translate(-37.918 -38.586)" fill="#c67ce7"/>
                </g>
              </g>
            </g>
            <g id="Group_5165" data-name="Group 5165" transform="translate(6.876 7.048)" opacity="0.85" style="mix-blend-mode: normal;isolation: isolate">
              <g id="Group_5164" data-name="Group 5164">
                <g id="Group_5163" data-name="Group 5163" clip-path="url(#clip-path-4)">
                  <path id="Path_19938" data-name="Path 19938" d="M67.62,66a3.236,3.236,0,1,1-3.236,3.236A3.236,3.236,0,0,1,67.62,66" transform="translate(-64.384 -65.996)" fill="#146373"/>
                </g>
              </g>
            </g>
            <path id="Path_19939" data-name="Path 19939" d="M137.563,268.1a3.236,3.236,0,1,1-3.236,3.236,3.236,3.236,0,0,1,3.236-3.236" transform="translate(-119.982 -239.467)" fill="#f6c141"/>
            <path id="Path_19940" data-name="Path 19940" d="M273.891,146.17a3.236,3.236,0,1,1-3.236,3.236,3.236,3.236,0,0,1,3.236-3.236" transform="translate(-241.751 -130.56)" fill="#f7778d"/>
            <g id="Group_5168" data-name="Group 5168" transform="translate(36.617 36.789)" opacity="0.9" style="mix-blend-mode: normal;isolation: isolate">
              <g id="Group_5167" data-name="Group 5167">
                <g id="Group_5166" data-name="Group 5166" clip-path="url(#clip-path-4)">
                  <path id="Path_19941" data-name="Path 19941" d="M346.114,344.49a3.236,3.236,0,1,1-3.236,3.236,3.236,3.236,0,0,1,3.236-3.236" transform="translate(-342.878 -344.49)" fill="#f3632d"/>
                </g>
              </g>
            </g>
            <g id="Group_5171" data-name="Group 5171" transform="translate(18.43)" opacity="0.85" style="mix-blend-mode: normal;isolation: isolate">
              <g id="Group_5170" data-name="Group 5170">
                <g id="Group_5169" data-name="Group 5169" clip-path="url(#clip-path-6)">
                  <path id="Path_19942" data-name="Path 19942" d="M174.556,8.758a16.818,16.818,0,0,1,21.149,20.8l7.553,2.143A24.827,24.827,0,0,0,172.579.956Z" transform="translate(-172.579)" fill="#146373"/>
                </g>
              </g>
            </g>
            <g id="Group_5174" data-name="Group 5174" transform="translate(0 18.745)" opacity="0.9" style="mix-blend-mode: normal;isolation: isolate">
              <g id="Group_5173" data-name="Group 5173">
                <g id="Group_5172" data-name="Group 5172" clip-path="url(#clip-path-7)">
                  <path id="Path_19943" data-name="Path 19943" d="M31.291,205.89l-2.072-7.452a16.865,16.865,0,0,1-12.8-1.449l-6.608.119.047-6.656a16.763,16.763,0,0,1-2.137-8.212,16.949,16.949,0,0,1,.665-4.685L.932,175.526a24.617,24.617,0,0,0,2.393,19.065l.065,9.073,9.251.065a24.678,24.678,0,0,0,18.65,2.161" transform="translate(0 -175.526)" fill="#f6602e"/>
                </g>
              </g>
            </g>
            <g id="Group_5177" data-name="Group 5177" transform="translate(59.464 13.71)" opacity="0.9" style="mix-blend-mode: normal;isolation: isolate">
              <g id="Group_5176" data-name="Group 5176">
                <g id="Group_5175" data-name="Group 5175" clip-path="url(#clip-path-8)">
                  <path id="Path_19944" data-name="Path 19944" d="M556.822,133.437V133a5.4,5.4,0,0,0,2.3-1.461,16.037,16.037,0,0,0,2.541-3.165h.623v3.515h3.6v1.544h-3.6v2.951c-.018.813-.03,1.657-.03,2.529v2.2a1.768,1.768,0,0,0,.285,1.188,1.484,1.484,0,0,0,1.069.3,2.106,2.106,0,0,0,.457-.065,2.883,2.883,0,0,0,1.217-.689,4.546,4.546,0,0,0,.647-.76l.273.35a5.578,5.578,0,0,1-1.152,1.514,5.715,5.715,0,0,1-1.259.879,4.89,4.89,0,0,1-1.164.422,4.81,4.81,0,0,1-.891.107,6.244,6.244,0,0,1-1.621-.178,1.986,1.986,0,0,1-1.027-.623,2.665,2.665,0,0,1-.54-1.205,9.511,9.511,0,0,1-.16-1.918v-7.006h-1.568Z" transform="translate(-556.822 -128.378)" fill="#fff"/>
                </g>
              </g>
            </g>
            <g id="Group_5180" data-name="Group 5180" transform="translate(67.711 11.436)" opacity="0.9" style="mix-blend-mode: normal;isolation: isolate">
              <g id="Group_5179" data-name="Group 5179">
                <g id="Group_5178" data-name="Group 5178" clip-path="url(#clip-path-9)">
                  <path id="Path_19945" data-name="Path 19945" d="M634.048,109.085l4.9-2h.76V114.6a5.12,5.12,0,0,1,1.746-1.283,6.138,6.138,0,0,1,2.743-.582,2.4,2.4,0,0,1,2.256,1.122,6,6,0,0,1,.665,3.04v3.3a8.561,8.561,0,0,0,.422,2.951c.279.76.665,1.164,1.152,1.217l.273.03a.333.333,0,0,0,.03.137v.677h-14.88V124.4l.244-.03c.487-.053.867-.457,1.152-1.217a8.685,8.685,0,0,0,.422-2.951v-5.973c0-.849-.024-1.532-.065-2.054a5.645,5.645,0,0,0-.244-1.3,2.023,2.023,0,0,0-.487-.813,4.239,4.239,0,0,0-.8-.57l-.244-.137v-.083c-.036-.03-.047-.089-.047-.184m5.658,11.121a8.392,8.392,0,0,0,.433,2.951c.291.76.665,1.164,1.134,1.217l.243.03h.083l.137-.03c.487-.089.867-.5,1.152-1.247a8.452,8.452,0,0,0,.422-2.921v-2.9a4.26,4.26,0,0,0-.125-1,3.7,3.7,0,0,0-.35-.932,2.139,2.139,0,0,0-.57-.677,1.2,1.2,0,0,0-.742-.255,1.6,1.6,0,0,0-.837.285,3.722,3.722,0,0,0-.974.986v4.495Z" transform="translate(-634.048 -107.084)" fill="#fff"/>
                </g>
              </g>
            </g>
            <g id="Group_5183" data-name="Group 5183" transform="translate(81.457 17.088)" opacity="0.9" style="mix-blend-mode: normal;isolation: isolate">
              <g id="Group_5182" data-name="Group 5182">
                <g id="Group_5181" data-name="Group 5181" clip-path="url(#clip-path-10)">
                  <path id="Path_19946" data-name="Path 19946" d="M762.76,166.942a8.208,8.208,0,0,1,.475-2.868,6.214,6.214,0,0,1,1.342-2.179,5.82,5.82,0,0,1,2.108-1.4,7.554,7.554,0,0,1,2.785-.487,5.706,5.706,0,0,1,2.3.445,4.909,4.909,0,0,1,1.746,1.271,5.884,5.884,0,0,1,1.11,2,8.235,8.235,0,0,1,.392,2.613l-8.117.136a7.242,7.242,0,0,0,.457,1.674,3.712,3.712,0,0,0,.92,1.336,3.932,3.932,0,0,0,1.473.837,5.619,5.619,0,0,0,2.1.2A2.939,2.939,0,0,0,773.1,170a5.321,5.321,0,0,0,1.4-1.473l.434.38a6.262,6.262,0,0,1-1.259,1.7,7.585,7.585,0,0,1-1.568,1.152,6.786,6.786,0,0,1-1.663.647,6.534,6.534,0,0,1-1.544.2,7.582,7.582,0,0,1-2.541-.4,5.671,5.671,0,0,1-1.936-1.134,4.813,4.813,0,0,1-1.229-1.787,6.045,6.045,0,0,1-.433-2.345m4.055-1.33h3.135a1.655,1.655,0,0,0,1.069-.368,1.754,1.754,0,0,0,.54-.837,2.419,2.419,0,0,0,.065-1.081,2.642,2.642,0,0,0-.392-1.069,2.723,2.723,0,0,0-.813-.813,2.129,2.129,0,0,0-1.176-.327,2.027,2.027,0,0,0-1.811,1.229,6.526,6.526,0,0,0-.617,3.266" transform="translate(-762.76 -160.013)" fill="#fff"/>
                </g>
              </g>
            </g>
            <g id="Group_5186" data-name="Group 5186" transform="translate(93.492 16.815)" opacity="0.9" style="mix-blend-mode: normal;isolation: isolate">
              <g id="Group_5185" data-name="Group 5185">
                <g id="Group_5184" data-name="Group 5184" clip-path="url(#clip-path-11)">
                  <path id="Path_19947" data-name="Path 19947" d="M875.459,166.006a1.1,1.1,0,0,1,.125.012.934.934,0,0,0,.2.012,7.945,7.945,0,0,0,.57,1.188,5.529,5.529,0,0,0,.867,1.152,4.657,4.657,0,0,0,1.152.867,2.855,2.855,0,0,0,1.366.338,2.309,2.309,0,0,0,1.556-.5,1.713,1.713,0,0,0,.582-1.366,1.636,1.636,0,0,0-.623-1.152,5.112,5.112,0,0,0-1.651-.986,9.039,9.039,0,0,1-1.663-.825,6.813,6.813,0,0,1-1.271-1.015,4.534,4.534,0,0,1-.813-1.11,2.429,2.429,0,0,1-.285-1.081,3.476,3.476,0,0,1,.392-1.621,3.775,3.775,0,0,1,1.122-1.3,5.62,5.62,0,0,1,1.787-.855,8.385,8.385,0,0,1,2.381-.309,6.283,6.283,0,0,1,.932.083,7.739,7.739,0,0,1,1.057.243,5.512,5.512,0,0,1,1,.422,3.094,3.094,0,0,1,.8.606l-.107,2.975h-.4c-.178-.344-.368-.713-.57-1.11a6.507,6.507,0,0,0-.677-1.092,4.318,4.318,0,0,0-.855-.855,1.913,1.913,0,0,0-1.069-.38,3.128,3.128,0,0,0-1.081.125,2.743,2.743,0,0,0-.825.4,1.89,1.89,0,0,0-.528.606,1.5,1.5,0,0,0-.19.7c-.018.451.315.855,1,1.217s1.6.778,2.761,1.247a4.5,4.5,0,0,1,2.031,1.514,3.519,3.519,0,0,1,.73,2.108,3.576,3.576,0,0,1-1.556,3.07,7.106,7.106,0,0,1-4.233,1.122,6.834,6.834,0,0,1-2.161-.338,5.411,5.411,0,0,1-1.7-.879Z" transform="translate(-875.459 -157.456)" fill="#f6602e"/>
                </g>
              </g>
            </g>
            <g id="Group_5189" data-name="Group 5189" transform="translate(103.123 17.094)" opacity="0.9" style="mix-blend-mode: normal;isolation: isolate">
              <g id="Group_5188" data-name="Group 5188">
                <g id="Group_5187" data-name="Group 5187" clip-path="url(#clip-path-12)">
                  <path id="Path_19948" data-name="Path 19948" d="M965.64,166.37a6.824,6.824,0,0,1,.475-2.595,5.489,5.489,0,0,1,1.366-1.989,6.108,6.108,0,0,1,2.161-1.271,8.548,8.548,0,0,1,2.838-.445,8.324,8.324,0,0,1,2.8.445,6.2,6.2,0,0,1,2.149,1.271,5.49,5.49,0,0,1,1.366,1.989,7.325,7.325,0,0,1,0,5.189,5.489,5.489,0,0,1-1.366,1.989,6.108,6.108,0,0,1-2.149,1.271,8.324,8.324,0,0,1-2.8.445,8.523,8.523,0,0,1-2.838-.445,6.057,6.057,0,0,1-2.161-1.271,5.489,5.489,0,0,1-1.366-1.989,6.824,6.824,0,0,1-.475-2.595m4.168,0a8.924,8.924,0,0,0,.73,3.948,2.029,2.029,0,0,0,3.895,0,11.037,11.037,0,0,0,0-7.9,2.029,2.029,0,0,0-3.895,0,8.906,8.906,0,0,0-.73,3.948" transform="translate(-965.64 -160.07)" fill="#f6602e"/>
                </g>
              </g>
            </g>
            <g id="Group_5192" data-name="Group 5192" transform="translate(116.661 17.088)" opacity="0.9" style="mix-blend-mode: normal;isolation: isolate">
              <g id="Group_5191" data-name="Group 5191">
                <g id="Group_5190" data-name="Group 5190" clip-path="url(#clip-path-13)">
                  <path id="Path_19949" data-name="Path 19949" d="M1099.566,160.014a7.293,7.293,0,0,1,3.5.73,2.48,2.48,0,0,1,1.449,2,1.723,1.723,0,0,1-.463,1.259,1.628,1.628,0,0,1-1.217.475,1.767,1.767,0,0,1-1.324-.528,2.271,2.271,0,0,1-.594-1.419,1.4,1.4,0,0,0-.529-1.027,1.922,1.922,0,0,0-1.229-.38,2.233,2.233,0,0,0-1.977,1.164,5.862,5.862,0,0,0-.73,3.135,7.184,7.184,0,0,0,.3,2.066,4.41,4.41,0,0,0,.92,1.692,4.033,4.033,0,0,0,1.585,1.081,4.961,4.961,0,0,0,2.256.273,2.693,2.693,0,0,0,.594-.148,3.4,3.4,0,0,0,.718-.362,4.436,4.436,0,0,0,.719-.612,2.953,2.953,0,0,0,.57-.879l.433.38a5.944,5.944,0,0,1-1.229,1.7,7.262,7.262,0,0,1-3.3,1.8,6.584,6.584,0,0,1-1.526.2,7.54,7.54,0,0,1-2.517-.4,5.39,5.39,0,0,1-1.918-1.134,5,5,0,0,1-1.217-1.787,6.1,6.1,0,0,1-.433-2.351,7.813,7.813,0,0,1,.5-2.868,6.1,6.1,0,0,1,1.437-2.179,6.381,6.381,0,0,1,2.256-1.4,8.576,8.576,0,0,1,2.969-.487" transform="translate(-1092.406 -160.014)" fill="#f6602e"/>
                </g>
              </g>
            </g>
            <g id="Group_5195" data-name="Group 5195" transform="translate(128.12 11.002)" opacity="0.9" style="mix-blend-mode: normal;isolation: isolate">
              <g id="Group_5194" data-name="Group 5194">
                <g id="Group_5193" data-name="Group 5193" clip-path="url(#clip-path-14)">
                  <path id="Path_19950" data-name="Path 19950" d="M1199.711,121.585v-.3a1.556,1.556,0,0,1,.03-.38v-.137l.243-.03c.522-.053.92-.481,1.188-1.282a9.585,9.585,0,0,0,.4-3.04c0-.849-.024-1.538-.065-2.072a5.647,5.647,0,0,0-.243-1.312,2.023,2.023,0,0,0-.487-.813,4.229,4.229,0,0,0-.8-.57l-.243-.137v-.083a.464.464,0,0,1-.03-.19l4.922-2h.76v7.333a8.392,8.392,0,0,0,.433,2.951c.291.76.665,1.164,1.134,1.217l.273.03a.335.335,0,0,0,.03.137v.677h-7.552m1.461-16.393a2.18,2.18,0,0,1,.57-1.585,2.063,2.063,0,0,1,1.544-.582,2.031,2.031,0,0,1,1.514.582,2.49,2.49,0,0,1,0,3.171,2.031,2.031,0,0,1-1.514.582,2.073,2.073,0,0,1-1.544-.582,2.18,2.18,0,0,1-.57-1.585" transform="translate(-1199.711 -103.024)" fill="#f6602e"/>
                </g>
              </g>
            </g>
            <g id="Group_5198" data-name="Group 5198" transform="translate(135.126 17.145)" opacity="0.9" style="mix-blend-mode: normal;isolation: isolate">
              <g id="Group_5197" data-name="Group 5197">
                <g id="Group_5196" data-name="Group 5196" clip-path="url(#clip-path-15)">
                  <path id="Path_19951" data-name="Path 19951" d="M1265.318,169.91a2.647,2.647,0,0,1,.73-1.936,5.122,5.122,0,0,1,1.787-1.164,10.121,10.121,0,0,1,2.233-.594,17.45,17.45,0,0,1,2.066-.2v-2.108a4.4,4.4,0,0,0-.255-1.651c-.172-.416-.41-.623-.718-.623a1.356,1.356,0,0,0-1.3.879,4.222,4.222,0,0,0-.22,2.316c-.362.089-.689.16-.985.214a4.912,4.912,0,0,1-1.8,0c-.309-.053-.659-.125-1.057-.214a2.907,2.907,0,0,1,.273-1.757,3.669,3.669,0,0,1,1.229-1.378,6.453,6.453,0,0,1,2.031-.879,9.376,9.376,0,0,1,2.69-.255,4.263,4.263,0,0,1,3.016,1.176,4.145,4.145,0,0,1,1.122,3.07v4.679a3.805,3.805,0,0,0,.214,1.4.814.814,0,0,0,.837.528,1.49,1.49,0,0,0,.73-.148.954.954,0,0,0,.4-.422l.4.517a3.633,3.633,0,0,1-1.407,1.419,5.629,5.629,0,0,1-2.731.528,2.749,2.749,0,0,1-1.407-.35,1.793,1.793,0,0,1-.813-.974,8.365,8.365,0,0,1-1.68.825,5.8,5.8,0,0,1-2.054.362,3.358,3.358,0,0,1-1.378-.273,3.265,3.265,0,0,1-1.057-.719,3.165,3.165,0,0,1-.9-2.262m3.812-.623a1.815,1.815,0,0,0,.582,1.449,1.991,1.991,0,0,0,2.446.148l-.03-4.109a4.413,4.413,0,0,0-1.093.136,2.848,2.848,0,0,0-.962.445,2.3,2.3,0,0,0-.689.784,2.42,2.42,0,0,0-.255,1.146" transform="translate(-1265.318 -160.55)" fill="#f6602e"/>
                </g>
              </g>
            </g>
            <g id="Group_5201" data-name="Group 5201" transform="translate(147.352 11.424)" opacity="0.9" style="mix-blend-mode: normal;isolation: isolate">
              <g id="Group_5200" data-name="Group 5200">
                <g id="Group_5199" data-name="Group 5199" clip-path="url(#clip-path-16)">
                  <path id="Path_19952" data-name="Path 19952" d="M1379.8,124.808a1.555,1.555,0,0,1,.03-.38v-.137l.243-.03c.487-.053.873-.457,1.164-1.217a8.369,8.369,0,0,0,.433-2.951V114.15c0-.849-.024-1.538-.065-2.072a5.64,5.64,0,0,0-.243-1.312,2.022,2.022,0,0,0-.487-.813,4.232,4.232,0,0,0-.8-.57l-.243-.136v-.083a.466.466,0,0,1-.03-.19l4.922-2h.76v13.122a8.4,8.4,0,0,0,.433,2.951c.291.76.665,1.164,1.134,1.217l.273.03a.335.335,0,0,0,.03.137v.677h-7.547v-.3Z" transform="translate(-1379.796 -106.972)" fill="#f6602e"/>
                </g>
              </g>
            </g>
            <g id="Group_5204" data-name="Group 5204" transform="translate(154.144 17.088)" opacity="0.85" style="mix-blend-mode: normal;isolation: isolate">
              <g id="Group_5203" data-name="Group 5203">
                <g id="Group_5202" data-name="Group 5202" clip-path="url(#clip-path-17)">
                  <path id="Path_19953" data-name="Path 19953" d="M1443.4,172.489v-.3a1.548,1.548,0,0,1,.03-.38v-.137l.273-.03c.5-.053.891-.481,1.164-1.282a9.712,9.712,0,0,0,.4-3.07q0-1.274-.053-2.066a4.975,4.975,0,0,0-.232-1.3,2.108,2.108,0,0,0-.487-.813,3.038,3.038,0,0,0-.8-.552l-.273-.137v-.083a.462.462,0,0,1-.03-.19l4.9-2h.76v1.864a5.09,5.09,0,0,1,1.746-1.366,6.052,6.052,0,0,1,2.856-.635,2.4,2.4,0,0,1,2.256,1.122,6,6,0,0,1,.665,3.04v3.3a8.566,8.566,0,0,0,.421,2.951c.279.76.665,1.164,1.152,1.217l.273.03a.335.335,0,0,0,.03.137v.677h-7.333v-.813l.16-.03c.487-.089.855-.5,1.11-1.247a9.372,9.372,0,0,0,.38-2.921v-2.9a4.334,4.334,0,0,0-.125-1.027,3.7,3.7,0,0,0-.35-.932,2.138,2.138,0,0,0-.57-.677,1.2,1.2,0,0,0-.742-.255,1.6,1.6,0,0,0-.891.327,4.322,4.322,0,0,0-1.027,1.11v4.352a8.707,8.707,0,0,0,.422,2.951c.279.76.665,1.164,1.152,1.217l.214.03v.813H1443.4" transform="translate(-1443.4 -160.014)" fill="#146373"/>
                </g>
              </g>
            </g>
            <g id="Group_5207" data-name="Group 5207" transform="translate(168.074 17.088)" opacity="0.85" style="mix-blend-mode: normal;isolation: isolate">
              <g id="Group_5206" data-name="Group 5206">
                <g id="Group_5205" data-name="Group 5205" clip-path="url(#clip-path-18)">
                  <path id="Path_19954" data-name="Path 19954" d="M1573.835,166.942a8.212,8.212,0,0,1,.475-2.868,6.288,6.288,0,0,1,1.336-2.179,5.819,5.819,0,0,1,2.108-1.4,7.553,7.553,0,0,1,2.785-.487,5.706,5.706,0,0,1,2.3.445,4.908,4.908,0,0,1,1.746,1.271,5.882,5.882,0,0,1,1.11,2,8.236,8.236,0,0,1,.392,2.613l-8.117.136a7.247,7.247,0,0,0,.457,1.674,3.714,3.714,0,0,0,.92,1.336,3.932,3.932,0,0,0,1.472.837,5.607,5.607,0,0,0,2.1.2,2.94,2.94,0,0,0,1.259-.528,5.319,5.319,0,0,0,1.4-1.473l.433.38a6.254,6.254,0,0,1-1.259,1.7,7.58,7.58,0,0,1-1.568,1.152,6.781,6.781,0,0,1-1.662.647,6.533,6.533,0,0,1-1.544.2,7.579,7.579,0,0,1-2.541-.4,5.634,5.634,0,0,1-1.936-1.134,4.812,4.812,0,0,1-1.229-1.787,6.274,6.274,0,0,1-.428-2.345m4.061-1.33h3.135a1.655,1.655,0,0,0,1.069-.368,1.754,1.754,0,0,0,.54-.837,2.422,2.422,0,0,0,.065-1.081,2.658,2.658,0,0,0-1.205-1.882,2.129,2.129,0,0,0-1.176-.327,2.027,2.027,0,0,0-1.811,1.229,6.528,6.528,0,0,0-.617,3.266" transform="translate(-1573.836 -160.013)" fill="#146373"/>
                </g>
              </g>
            </g>
            <g id="Group_5210" data-name="Group 5210" transform="translate(179.818 17.219)" opacity="0.85" style="mix-blend-mode: normal;isolation: isolate">
              <g id="Group_5209" data-name="Group 5209">
                <g id="Group_5208" data-name="Group 5208" clip-path="url(#clip-path-19)">
                  <path id="Path_19955" data-name="Path 19955" d="M1683.81,173.581v-.3a1.292,1.292,0,0,1,.03-.38v-.137l.243-.03q.784-.08,1.176-1.282a10.109,10.109,0,0,0,.392-3.07c0-.849-.018-1.532-.053-2.054a5.121,5.121,0,0,0-.231-1.3,2.022,2.022,0,0,0-.487-.813,4.23,4.23,0,0,0-.8-.57l-.243-.137v-.083a.464.464,0,0,1-.03-.19l4.9-2h.76v3.948c.125-.309.291-.665.487-1.081a7.7,7.7,0,0,1,.7-1.187,5.781,5.781,0,0,1,.92-1.015,2.31,2.31,0,0,1,1.11-.552,1.822,1.822,0,0,1,1.734.368,3.1,3.1,0,0,1,.76,1.662,1.848,1.848,0,0,1-.065.8,2.065,2.065,0,0,1-.327.623,1.261,1.261,0,0,1-.475.38.622.622,0,0,1-.487.042,5.784,5.784,0,0,1-1-.487,2.015,2.015,0,0,0-1.057-.3,1.9,1.9,0,0,0-1.039.362,5.184,5.184,0,0,0-1.259,1.4v2.381a8.561,8.561,0,0,0,.422,2.951c.279.76.665,1.164,1.152,1.217l.273.03a.335.335,0,0,0,.03.136v.677h-7.535Z" transform="translate(-1683.81 -161.237)" fill="#146373"/>
                </g>
              </g>
            </g>
            <g id="Group_5213" data-name="Group 5213" transform="translate(190.179 11.448)" opacity="0.85" style="mix-blend-mode: normal;isolation: isolate">
              <g id="Group_5212" data-name="Group 5212">
                <g id="Group_5211" data-name="Group 5211" clip-path="url(#clip-path-20)">
                  <path id="Path_19956" data-name="Path 19956" d="M1780.83,120.007a9.146,9.146,0,0,1,.457-2.975,6.365,6.365,0,0,1,1.312-2.256,5.773,5.773,0,0,1,2.054-1.431,6.958,6.958,0,0,1,2.69-.5,3.11,3.11,0,0,1,1.081.19,4.044,4.044,0,0,1,.974.517c-.018-.665-.047-1.223-.095-1.663a3.892,3.892,0,0,0-.244-1.081,1.877,1.877,0,0,0-.475-.689,3.84,3.84,0,0,0-.76-.517l-.273-.137v-.083a.487.487,0,0,1-.024-.19l4.9-2h.76v10.984c0,.831.024,1.508.065,2.042a5.64,5.64,0,0,0,.244,1.312,2.025,2.025,0,0,0,.487.813,4.24,4.24,0,0,0,.8.57l.244.137a.2.2,0,0,0,.024.083v.19l-4.9,2h-.76v-1.841a6.5,6.5,0,0,1-1.716,1.449,3.618,3.618,0,0,1-1.8.528,4.8,4.8,0,0,1-3.705-1.461,5.792,5.792,0,0,1-1.336-4m7.143,3.028a3.183,3.183,0,0,0,.825-.1,2.429,2.429,0,0,0,.606-.232v-7.547a2.815,2.815,0,0,0-.962-.908,2.5,2.5,0,0,0-1.282-.338,1.918,1.918,0,0,0-1.716,1.247,7.467,7.467,0,0,0-.635,3.355,5.7,5.7,0,0,0,.849,3.3,2.7,2.7,0,0,0,2.316,1.217" transform="translate(-1780.83 -107.194)" fill="#146373"/>
                </g>
              </g>
            </g>
            <g id="Group_5216" data-name="Group 5216" transform="translate(203.782 16.815)" opacity="0.85" style="mix-blend-mode: normal;isolation: isolate">
              <g id="Group_5215" data-name="Group 5215">
                <g id="Group_5214" data-name="Group 5214" clip-path="url(#clip-path-21)">
                  <path id="Path_19957" data-name="Path 19957" d="M1908.206,166.006a1.1,1.1,0,0,1,.125.012.935.935,0,0,0,.2.012,7.919,7.919,0,0,0,.57,1.188,5.529,5.529,0,0,0,.867,1.152,4.655,4.655,0,0,0,1.152.867,2.855,2.855,0,0,0,1.366.338,2.308,2.308,0,0,0,1.555-.5,1.713,1.713,0,0,0,.582-1.366,1.636,1.636,0,0,0-.624-1.152,5.113,5.113,0,0,0-1.651-.986,9.03,9.03,0,0,1-1.662-.825,6.813,6.813,0,0,1-1.271-1.015,4.545,4.545,0,0,1-.813-1.11,2.43,2.43,0,0,1-.285-1.081,3.476,3.476,0,0,1,.392-1.621,3.776,3.776,0,0,1,1.122-1.3,5.62,5.62,0,0,1,1.787-.855,8.385,8.385,0,0,1,2.381-.309,6.284,6.284,0,0,1,.932.083,7.746,7.746,0,0,1,1.057.243,5.51,5.51,0,0,1,1,.422,3.094,3.094,0,0,1,.8.606l-.107,2.975h-.4c-.178-.344-.368-.713-.57-1.11a6.507,6.507,0,0,0-.677-1.092,4.325,4.325,0,0,0-.855-.855,1.913,1.913,0,0,0-1.069-.38,3.128,3.128,0,0,0-1.081.125,2.748,2.748,0,0,0-.825.4,1.89,1.89,0,0,0-.528.606,1.5,1.5,0,0,0-.19.7c-.018.451.314.855,1,1.217s1.6.778,2.761,1.247a4.5,4.5,0,0,1,2.031,1.514,3.519,3.519,0,0,1,.73,2.108,3.576,3.576,0,0,1-1.555,3.07,7.106,7.106,0,0,1-4.234,1.122,6.833,6.833,0,0,1-2.161-.338,5.41,5.41,0,0,1-1.7-.879Z" transform="translate(-1908.207 -157.456)" fill="#146373"/>
                </g>
              </g>
            </g>
            <g id="Group_5219" data-name="Group 5219" transform="translate(73.293 38.042)" opacity="0.9" style="mix-blend-mode: normal;isolation: isolate">
              <g id="Group_5218" data-name="Group 5218">
                <g id="Group_5217" data-name="Group 5217" clip-path="url(#clip-path-22)">
                  <path id="Path_19958" data-name="Path 19958" d="M686.312,359.926a.163.163,0,0,1,.053.006.347.347,0,0,0,.089.006,4.007,4.007,0,0,0,.243.517,2.494,2.494,0,0,0,.374.5,1.892,1.892,0,0,0,.5.374,1.207,1.207,0,0,0,.594.148.972.972,0,0,0,.671-.22.737.737,0,0,0,.249-.594.712.712,0,0,0-.267-.5,2.267,2.267,0,0,0-.713-.427,3.857,3.857,0,0,1-.719-.356,3.27,3.27,0,0,1-.552-.439,1.837,1.837,0,0,1-.35-.481,1.048,1.048,0,0,1-.125-.469,1.441,1.441,0,0,1,.172-.7,1.629,1.629,0,0,1,.487-.564,2.522,2.522,0,0,1,.772-.368,3.645,3.645,0,0,1,1.027-.137,2.658,2.658,0,0,1,.4.036,3.175,3.175,0,0,1,.457.107,2.542,2.542,0,0,1,.433.178,1.286,1.286,0,0,1,.344.261l-.048,1.288h-.172c-.077-.148-.16-.309-.244-.481a3.162,3.162,0,0,0-.291-.475,1.8,1.8,0,0,0-.368-.368.86.86,0,0,0-.463-.166,1.476,1.476,0,0,0-.469.053,1,1,0,0,0-.356.178.729.729,0,0,0-.226.261.648.648,0,0,0-.083.3c-.006.2.137.368.433.528s.695.333,1.193.54a1.982,1.982,0,0,1,.879.653,1.586,1.586,0,0,1-.356,2.244,3.051,3.051,0,0,1-1.829.487,2.9,2.9,0,0,1-.938-.148,2.45,2.45,0,0,1-.736-.38Z" transform="translate(-686.312 -356.221)" fill="#6b6c6e"/>
                </g>
              </g>
            </g>
            <g id="Group_5222" data-name="Group 5222" transform="translate(77.942 38.16)" opacity="0.9" style="mix-blend-mode: normal;isolation: isolate">
              <g id="Group_5221" data-name="Group 5221">
                <g id="Group_5220" data-name="Group 5220" clip-path="url(#clip-path-23)">
                  <path id="Path_19959" data-name="Path 19959" d="M729.845,360.065a2.929,2.929,0,0,1,.208-1.122,2.31,2.31,0,0,1,.594-.861,2.673,2.673,0,0,1,.938-.552,3.656,3.656,0,0,1,1.229-.2,3.551,3.551,0,0,1,1.211.2,2.756,2.756,0,0,1,.932.552,2.381,2.381,0,0,1,.594.861,2.974,2.974,0,0,1,.2,1.122,3.069,3.069,0,0,1-.2,1.122,2.358,2.358,0,0,1-.594.861,2.756,2.756,0,0,1-.932.552,3.551,3.551,0,0,1-1.211.2,3.656,3.656,0,0,1-1.229-.2,2.726,2.726,0,0,1-.938-.552,2.31,2.31,0,0,1-.594-.861,2.822,2.822,0,0,1-.208-1.122m1.8,0a3.906,3.906,0,0,0,.315,1.71.877.877,0,0,0,1.686,0,4.8,4.8,0,0,0,0-3.42.879.879,0,0,0-1.686,0,3.857,3.857,0,0,0-.315,1.71" transform="translate(-729.845 -357.334)" fill="#6b6c6e"/>
                </g>
              </g>
            </g>
            <g id="Group_5225" data-name="Group 5225" transform="translate(84.271 38.166)" opacity="0.9" style="mix-blend-mode: normal;isolation: isolate">
              <g id="Group_5224" data-name="Group 5224">
                <g id="Group_5223" data-name="Group 5223" clip-path="url(#clip-path-24)">
                  <path id="Path_19960" data-name="Path 19960" d="M792.219,357.389a3.187,3.187,0,0,1,1.514.315,1.07,1.07,0,0,1,.623.867.76.76,0,0,1-.2.546.7.7,0,0,1-.528.2.788.788,0,0,1-.576-.226.977.977,0,0,1-.255-.612.6.6,0,0,0-.226-.445.844.844,0,0,0-.534-.166.97.97,0,0,0-.855.5,2.574,2.574,0,0,0-.315,1.36,2.98,2.98,0,0,0,.131.9,1.976,1.976,0,0,0,.4.73,1.756,1.756,0,0,0,.683.469,2.134,2.134,0,0,0,.98.119,1.074,1.074,0,0,0,.255-.065,1.277,1.277,0,0,0,.309-.16,2.057,2.057,0,0,0,.309-.261,1.13,1.13,0,0,0,.243-.38l.19.166a2.525,2.525,0,0,1-.534.736,3.22,3.22,0,0,1-.689.5,3.193,3.193,0,0,1-1.4.368,3.16,3.16,0,0,1-1.087-.178,2.359,2.359,0,0,1-.831-.493,2.156,2.156,0,0,1-.528-.772,2.644,2.644,0,0,1-.19-1.015,3.277,3.277,0,0,1,.22-1.241,2.6,2.6,0,0,1,1.6-1.544,3.535,3.535,0,0,1,1.288-.22" transform="translate(-789.114 -357.389)" fill="#6b6c6e"/>
                </g>
              </g>
            </g>
            <g id="Group_5228" data-name="Group 5228" transform="translate(89.716 35.536)" opacity="0.9" style="mix-blend-mode: normal;isolation: isolate">
              <g id="Group_5227" data-name="Group 5227">
                <g id="Group_5226" data-name="Group 5226" clip-path="url(#clip-path-25)">
                  <path id="Path_19961" data-name="Path 19961" d="M840.1,340.787v-.131a.857.857,0,0,1,.012-.166v-.059l.107-.012c.226-.024.4-.208.516-.558a4.106,4.106,0,0,0,.178-1.318c0-.368-.012-.665-.03-.9a2.212,2.212,0,0,0-.107-.57.871.871,0,0,0-.208-.35,1.836,1.836,0,0,0-.344-.243l-.107-.059v-.036a.245.245,0,0,1-.012-.083l2.131-.867h.327v3.171a3.639,3.639,0,0,0,.19,1.277c.125.327.291.5.493.528l.119.012a.255.255,0,0,0,.012.059v.3H840.1Zm.635-7.1a.941.941,0,0,1,.244-.683.9.9,0,0,1,.665-.249.868.868,0,0,1,.653.249.926.926,0,0,1,.243.683.95.95,0,0,1-.243.683.877.877,0,0,1-.653.249.886.886,0,0,1-.665-.249.917.917,0,0,1-.244-.683" transform="translate(-840.098 -332.759)" fill="#6b6c6e"/>
                </g>
              </g>
            </g>
            <g id="Group_5231" data-name="Group 5231" transform="translate(93.231 38.188)" opacity="0.9" style="mix-blend-mode: normal;isolation: isolate">
              <g id="Group_5230" data-name="Group 5230">
                <g id="Group_5229" data-name="Group 5229" clip-path="url(#clip-path-26)">
                  <path id="Path_19962" data-name="Path 19962" d="M873.013,361.643a1.152,1.152,0,0,1,.315-.837,2.324,2.324,0,0,1,.772-.5,4.218,4.218,0,0,1,.968-.255,7.982,7.982,0,0,1,.9-.089v-.914a1.827,1.827,0,0,0-.113-.713c-.071-.178-.178-.267-.309-.267a.589.589,0,0,0-.564.38,1.831,1.831,0,0,0-.1,1c-.154.042-.3.071-.427.1a2.137,2.137,0,0,1-.778,0c-.131-.024-.285-.053-.457-.1a1.227,1.227,0,0,1,.119-.76,1.652,1.652,0,0,1,.534-.6,2.658,2.658,0,0,1,.879-.38,4.209,4.209,0,0,1,1.164-.113,1.849,1.849,0,0,1,1.306.511,1.78,1.78,0,0,1,.487,1.33v2.025a1.578,1.578,0,0,0,.1.606.349.349,0,0,0,.362.226.671.671,0,0,0,.315-.065.412.412,0,0,0,.178-.184l.178.226a1.607,1.607,0,0,1-.612.617,2.409,2.409,0,0,1-1.182.226,1.108,1.108,0,0,1-.606-.154.808.808,0,0,1-.35-.422,3.923,3.923,0,0,1-.724.356,2.47,2.47,0,0,1-.891.16,1.472,1.472,0,0,1-.594-.119,1.38,1.38,0,0,1-.457-.309,1.34,1.34,0,0,1-.291-.451,1.517,1.517,0,0,1-.119-.528m1.651-.267a.776.776,0,0,0,.249.623.856.856,0,0,0,1.063.065l-.012-1.781a1.8,1.8,0,0,0-.475.059,1.165,1.165,0,0,0-.416.2.96.96,0,0,0-.3.338,1,1,0,0,0-.113.5" transform="translate(-873.013 -357.591)" fill="#6b6c6e"/>
                </g>
              </g>
            </g>
            <g id="Group_5234" data-name="Group 5234" transform="translate(98.996 35.708)" opacity="0.9" style="mix-blend-mode: normal;isolation: isolate">
              <g id="Group_5233" data-name="Group 5233">
                <g id="Group_5232" data-name="Group 5232" clip-path="url(#clip-path-27)">
                  <path id="Path_19963" data-name="Path 19963" d="M927,342.1a.859.859,0,0,1,.012-.166v-.059l.107-.012c.208-.024.38-.2.5-.528a3.668,3.668,0,0,0,.19-1.277v-2.577c0-.368-.012-.665-.03-.9a2.215,2.215,0,0,0-.107-.57.872.872,0,0,0-.208-.35,1.841,1.841,0,0,0-.344-.243l-.107-.059v-.036a.245.245,0,0,1-.012-.083l2.132-.867h.327v5.676a3.638,3.638,0,0,0,.19,1.277c.125.327.291.5.493.529l.119.012a.261.261,0,0,0,.012.059v.3h-3.266V342.1Z" transform="translate(-926.999 -334.371)" fill="#6b6c6e"/>
                </g>
              </g>
            </g>
            <g id="Group_5237" data-name="Group 5237" transform="translate(104.732 38.154)" opacity="0.9" style="mix-blend-mode: normal;isolation: isolate">
              <g id="Group_5236" data-name="Group 5236">
                <g id="Group_5235" data-name="Group 5235" clip-path="url(#clip-path-28)">
                  <path id="Path_19964" data-name="Path 19964" d="M980.707,362.688v-.131a.852.852,0,0,1,.012-.166v-.059l.107-.012c.226-.024.4-.208.517-.558a4.18,4.18,0,0,0,.172-1.33c0-.368-.012-.665-.03-.891a2.213,2.213,0,0,0-.107-.564.811.811,0,0,0-.208-.35,1.661,1.661,0,0,0-.344-.243l-.107-.059v-.036a.246.246,0,0,1-.012-.083l2.12-.867h.327v.807a2.255,2.255,0,0,1,.754-.594,2.6,2.6,0,0,1,1.235-.273,1.126,1.126,0,0,1,.8.261,1.406,1.406,0,0,1,.386.754,2.723,2.723,0,0,1,.4-.344,3.5,3.5,0,0,1,.546-.327,4.681,4.681,0,0,1,.623-.243,2.267,2.267,0,0,1,.653-.1,1.044,1.044,0,0,1,.98.487,2.555,2.555,0,0,1,.285,1.318v1.431a3.655,3.655,0,0,0,.184,1.277c.119.327.285.5.5.528l.119.012v.35h-3.266v-.35l.143-.012c.208-.018.374-.19.5-.523a3.861,3.861,0,0,0,.184-1.282v-1.253a1.591,1.591,0,0,0-.226-.813.872.872,0,0,0-.255-.273.617.617,0,0,0-.338-.107.82.82,0,0,0-.451.16,1.9,1.9,0,0,0-.5.546,1.447,1.447,0,0,1,.012.16v1.591a3.875,3.875,0,0,0,.178,1.282c.119.333.285.5.5.523l.154.012v.35h-3.171v-.35l.059-.012c.208-.042.368-.22.475-.54a4.1,4.1,0,0,0,.16-1.265v-1.253a1.9,1.9,0,0,0-.054-.445,1.424,1.424,0,0,0-.154-.4.91.91,0,0,0-.244-.291.527.527,0,0,0-.321-.113.705.705,0,0,0-.386.143,1.779,1.779,0,0,0-.445.481v1.882a3.508,3.508,0,0,0,.19,1.277c.125.327.291.5.5.528l.119.012v.35h-3.272Z" transform="translate(-980.707 -357.279)" fill="#6b6c6e"/>
                </g>
              </g>
            </g>
            <g id="Group_5240" data-name="Group 5240" transform="translate(114.611 38.166)" opacity="0.9" style="mix-blend-mode: normal;isolation: isolate">
              <g id="Group_5239" data-name="Group 5239">
                <g id="Group_5238" data-name="Group 5238" clip-path="url(#clip-path-29)">
                  <path id="Path_19965" data-name="Path 19965" d="M1073.224,360.388a3.53,3.53,0,0,1,.208-1.241,2.636,2.636,0,0,1,.582-.944,2.428,2.428,0,0,1,.914-.6,3.229,3.229,0,0,1,1.205-.214,2.452,2.452,0,0,1,1,.2,2.125,2.125,0,0,1,.754.552,2.505,2.505,0,0,1,.481.867,3.569,3.569,0,0,1,.172,1.128l-3.509.059a3.51,3.51,0,0,0,.2.724,1.664,1.664,0,0,0,.4.582,1.693,1.693,0,0,0,.641.362,2.414,2.414,0,0,0,.909.089,1.3,1.3,0,0,0,.546-.226,2.225,2.225,0,0,0,.6-.635l.19.166a2.558,2.558,0,0,1-.546.736,3.3,3.3,0,0,1-.677.5,2.762,2.762,0,0,1-.718.279,2.818,2.818,0,0,1-.665.089,3.205,3.205,0,0,1-1.1-.178,2.445,2.445,0,0,1-.837-.493,2.1,2.1,0,0,1-.534-.772,2.7,2.7,0,0,1-.208-1.027m1.757-.576h1.36a.7.7,0,0,0,.463-.16.736.736,0,0,0,.232-.362,1.111,1.111,0,0,0,.03-.469,1.184,1.184,0,0,0-.172-.463,1.161,1.161,0,0,0-.35-.35.9.9,0,0,0-.511-.142.881.881,0,0,0-.784.534,2.759,2.759,0,0,0-.267,1.413" transform="translate(-1073.224 -357.39)" fill="#6b6c6e"/>
                </g>
              </g>
            </g>
            <g id="Group_5243" data-name="Group 5243" transform="translate(120.384 35.726)" opacity="0.9" style="mix-blend-mode: normal;isolation: isolate">
              <g id="Group_5242" data-name="Group 5242">
                <g id="Group_5241" data-name="Group 5241" clip-path="url(#clip-path-30)">
                  <path id="Path_19966" data-name="Path 19966" d="M1127.266,340.084a3.993,3.993,0,0,1,.2-1.288,2.764,2.764,0,0,1,.57-.98,2.428,2.428,0,0,1,.891-.618,3.056,3.056,0,0,1,1.164-.22,1.37,1.37,0,0,1,.469.083,1.705,1.705,0,0,1,.422.226c-.006-.291-.024-.528-.042-.718a1.557,1.557,0,0,0-.107-.469.831.831,0,0,0-.208-.3,1.42,1.42,0,0,0-.326-.22l-.119-.059v-.036a.249.249,0,0,1-.012-.083l2.12-.867h.327v4.75c0,.356.012.653.03.885a2.215,2.215,0,0,0,.107.57.818.818,0,0,0,.214.35,1.662,1.662,0,0,0,.344.243l.107.059a.223.223,0,0,0,.012.036v.083l-2.12.867h-.326v-.8a2.683,2.683,0,0,1-.742.623,1.548,1.548,0,0,1-.778.226,2.08,2.08,0,0,1-1.6-.629,2.433,2.433,0,0,1-.588-1.722m3.094,1.306a1.331,1.331,0,0,0,.356-.042,1,1,0,0,0,.261-.1v-3.266a1.193,1.193,0,0,0-.416-.392,1.1,1.1,0,0,0-.558-.148.824.824,0,0,0-.742.54,3.2,3.2,0,0,0-.273,1.449,2.492,2.492,0,0,0,.368,1.431,1.151,1.151,0,0,0,1,.528" transform="translate(-1127.266 -334.538)" fill="#6b6c6e"/>
                </g>
              </g>
            </g>
            <g id="Group_5246" data-name="Group 5246" transform="translate(126.54 35.536)" opacity="0.9" style="mix-blend-mode: normal;isolation: isolate">
              <g id="Group_5245" data-name="Group 5245">
                <g id="Group_5244" data-name="Group 5244" clip-path="url(#clip-path-25)">
                  <path id="Path_19967" data-name="Path 19967" d="M1184.922,340.787v-.131a.847.847,0,0,1,.012-.166v-.059l.107-.012c.226-.024.4-.208.516-.558a4.108,4.108,0,0,0,.178-1.318c0-.368-.012-.665-.03-.9a2.21,2.21,0,0,0-.107-.57.809.809,0,0,0-.208-.35,1.663,1.663,0,0,0-.344-.243l-.107-.059v-.036a.244.244,0,0,1-.012-.083l2.131-.867h.327v3.171a3.641,3.641,0,0,0,.19,1.277c.125.327.291.5.493.528l.119.012a.265.265,0,0,0,.012.059v.3h-3.277Zm.635-7.1a.941.941,0,0,1,.244-.683.9.9,0,0,1,.665-.249.868.868,0,0,1,.653.249.926.926,0,0,1,.243.683.951.951,0,0,1-.243.683.877.877,0,0,1-.653.249.886.886,0,0,1-.665-.249.917.917,0,0,1-.244-.683" transform="translate(-1184.922 -332.759)" fill="#6b6c6e"/>
                </g>
              </g>
            </g>
            <g id="Group_5249" data-name="Group 5249" transform="translate(130.056 38.188)" opacity="0.9" style="mix-blend-mode: normal;isolation: isolate">
              <g id="Group_5248" data-name="Group 5248">
                <g id="Group_5247" data-name="Group 5247" clip-path="url(#clip-path-32)">
                  <path id="Path_19968" data-name="Path 19968" d="M1217.836,361.643a1.152,1.152,0,0,1,.315-.837,2.261,2.261,0,0,1,.772-.5,3.931,3.931,0,0,1,.968-.255,8.117,8.117,0,0,1,.9-.089v-.914a1.827,1.827,0,0,0-.113-.713c-.071-.178-.178-.267-.309-.267a.589.589,0,0,0-.564.38,1.828,1.828,0,0,0-.095,1c-.154.042-.3.071-.427.1a2.138,2.138,0,0,1-.778,0c-.13-.024-.285-.053-.457-.1a1.227,1.227,0,0,1,.119-.76,1.651,1.651,0,0,1,.534-.6,2.657,2.657,0,0,1,.879-.38,4.209,4.209,0,0,1,1.164-.113,1.849,1.849,0,0,1,1.306.511,1.8,1.8,0,0,1,.487,1.33v2.025a1.579,1.579,0,0,0,.1.606.354.354,0,0,0,.362.226.671.671,0,0,0,.315-.065.413.413,0,0,0,.178-.184l.178.226a1.606,1.606,0,0,1-.611.617,2.409,2.409,0,0,1-1.182.226,1.143,1.143,0,0,1-.612-.154.782.782,0,0,1-.35-.422,3.925,3.925,0,0,1-.724.356,2.471,2.471,0,0,1-.891.16,1.522,1.522,0,0,1-.6-.119,1.381,1.381,0,0,1-.457-.309,1.338,1.338,0,0,1-.291-.451,1.5,1.5,0,0,1-.107-.528m1.645-.267a.776.776,0,0,0,.249.623.856.856,0,0,0,1.063.065l-.012-1.781a1.8,1.8,0,0,0-.475.059,1.166,1.166,0,0,0-.416.2.96.96,0,0,0-.3.338,1.067,1.067,0,0,0-.113.5" transform="translate(-1217.837 -357.591)" fill="#6b6c6e"/>
                </g>
              </g>
            </g>
            <g id="Group_5252" data-name="Group 5252" transform="translate(136.361 41.759)" opacity="0.9" style="mix-blend-mode: normal;isolation: isolate">
              <g id="Group_5251" data-name="Group 5251">
                <g id="Group_5250" data-name="Group 5250" clip-path="url(#clip-path-33)">
                  <path id="Path_19969" data-name="Path 19969" d="M1277.8,391.027a.933.933,0,0,1,.469.119,1.049,1.049,0,0,1,.327.3,1.343,1.343,0,0,1,.2.416,1.626,1.626,0,0,1,.071.481,2.784,2.784,0,0,1-.445,1.55,2.47,2.47,0,0,1-1.205.98v-.214a1.265,1.265,0,0,0,.653-.617,2.254,2.254,0,0,0,.243-1.069,1.379,1.379,0,0,0-.036-.315.845.845,0,0,1-.493.19.584.584,0,0,1-.5-.267,1.057,1.057,0,0,1-.19-.617.931.931,0,0,1,.243-.671.9.9,0,0,1,.671-.261" transform="translate(-1276.882 -391.027)" fill="#6b6c6e"/>
                </g>
              </g>
            </g>
            <path id="Path_19970" data-name="Path 19970" d="M1322.028,340.084a3.993,3.993,0,0,1,.2-1.288,2.765,2.765,0,0,1,.57-.98,2.429,2.429,0,0,1,.891-.618,3.034,3.034,0,0,1,1.164-.22,1.369,1.369,0,0,1,.469.083,1.7,1.7,0,0,1,.422.226c-.006-.291-.024-.528-.042-.718a1.557,1.557,0,0,0-.107-.469.9.9,0,0,0-.2-.3,1.421,1.421,0,0,0-.327-.22l-.119-.059v-.036a.245.245,0,0,1-.012-.083l2.12-.867h.327v4.75c0,.356.012.653.03.885a2.215,2.215,0,0,0,.107.57.81.81,0,0,0,.208.35,1.663,1.663,0,0,0,.344.243l.107.059a.237.237,0,0,0,.012.036v.083l-2.12.867h-.327v-.8a2.685,2.685,0,0,1-.742.623,1.55,1.55,0,0,1-.778.226,2.08,2.08,0,0,1-1.6-.629,2.443,2.443,0,0,1-.588-1.722m3.093,1.306a1.333,1.333,0,0,0,.356-.042,1,1,0,0,0,.261-.1v-3.266a1.192,1.192,0,0,0-.416-.392,1.1,1.1,0,0,0-.558-.148.825.825,0,0,0-.742.54,3.216,3.216,0,0,0-.273,1.449,2.491,2.491,0,0,0,.368,1.431,1.158,1.158,0,0,0,1,.528" transform="translate(-1180.846 -298.812)" fill="#6b6c6e"/>
            <path id="Path_19971" data-name="Path 19971" d="M1381.8,360.065a2.929,2.929,0,0,1,.208-1.122,2.307,2.307,0,0,1,.594-.861,2.671,2.671,0,0,1,.938-.552,3.656,3.656,0,0,1,1.229-.2,3.55,3.55,0,0,1,1.211.2,2.754,2.754,0,0,1,.932.552,2.38,2.38,0,0,1,.594.861,2.972,2.972,0,0,1,.2,1.122,3.07,3.07,0,0,1-.2,1.122,2.356,2.356,0,0,1-.594.861,2.754,2.754,0,0,1-.932.552,3.55,3.55,0,0,1-1.211.2,3.656,3.656,0,0,1-1.229-.2,2.726,2.726,0,0,1-.938-.552,2.307,2.307,0,0,1-.594-.861,2.82,2.82,0,0,1-.208-1.122m1.8,0a3.907,3.907,0,0,0,.315,1.71.877.877,0,0,0,1.686,0,4.8,4.8,0,0,0,0-3.42.879.879,0,0,0-1.686,0,3.943,3.943,0,0,0-.315,1.71" transform="translate(-1234.232 -319.173)" fill="#6b6c6e"/>
            <path id="Path_19972" data-name="Path 19972" d="M1438.007,362.688v-.131a.858.858,0,0,1,.012-.166v-.059l.119-.012c.22-.024.386-.208.5-.558a4.166,4.166,0,0,0,.178-1.33c0-.368-.006-.665-.024-.9a2.179,2.179,0,0,0-.1-.564.962.962,0,0,0-.208-.35,1.26,1.26,0,0,0-.344-.237l-.119-.059v-.036a.244.244,0,0,1-.012-.083l2.12-.867h.327v.807a2.256,2.256,0,0,1,.754-.594,2.6,2.6,0,0,1,1.235-.273,1.043,1.043,0,0,1,.98.487,2.6,2.6,0,0,1,.285,1.318v1.431a3.652,3.652,0,0,0,.184,1.277c.125.327.285.5.5.528l.119.012a.271.271,0,0,0,.012.059v.3h-3.171v-.35l.071-.012c.208-.042.368-.22.481-.54a4.078,4.078,0,0,0,.166-1.265v-1.253a1.9,1.9,0,0,0-.054-.445,1.425,1.425,0,0,0-.154-.4.909.909,0,0,0-.244-.291.554.554,0,0,0-.321-.113.707.707,0,0,0-.386.142,1.781,1.781,0,0,0-.445.481v1.882a3.652,3.652,0,0,0,.184,1.276c.125.327.285.5.5.529l.1.012v.35h-3.242" transform="translate(-1284.439 -319.124)" fill="#6b6c6e"/>
            <path id="Path_19973" data-name="Path 19973" d="M1498.944,360.388a3.532,3.532,0,0,1,.2-1.241,2.636,2.636,0,0,1,.582-.944,2.477,2.477,0,0,1,.914-.6,3.229,3.229,0,0,1,1.205-.214,2.452,2.452,0,0,1,1,.2,2.124,2.124,0,0,1,.754.552,2.5,2.5,0,0,1,.481.867,3.573,3.573,0,0,1,.172,1.128l-3.509.059a3.179,3.179,0,0,0,.2.724,1.662,1.662,0,0,0,.4.582,1.712,1.712,0,0,0,.635.362,2.4,2.4,0,0,0,.908.089,1.3,1.3,0,0,0,.546-.226,2.318,2.318,0,0,0,.606-.635l.19.166a2.672,2.672,0,0,1-.546.736,3.311,3.311,0,0,1-.677.5,2.683,2.683,0,0,1-.719.279,2.814,2.814,0,0,1-.665.089,3.206,3.206,0,0,1-1.1-.178,2.441,2.441,0,0,1-.837-.493,2.1,2.1,0,0,1-.534-.772,2.444,2.444,0,0,1-.208-1.027m1.757-.576h1.36a.7.7,0,0,0,.463-.16.736.736,0,0,0,.232-.362,1.113,1.113,0,0,0,.03-.469,1.1,1.1,0,0,0-.172-.463,1.16,1.16,0,0,0-.35-.35.9.9,0,0,0-.511-.142.881.881,0,0,0-.784.534,2.759,2.759,0,0,0-.267,1.413" transform="translate(-1338.868 -319.224)" fill="#6b6c6e"/>
            <path id="Path_19974" data-name="Path 19974" d="M1569.109,335.35l2.132-.867h.327v2.951a1.054,1.054,0,0,1,.6-.368,3.9,3.9,0,0,1,1.11-.137,2,2,0,0,1,.891.2,1.875,1.875,0,0,1,.677.564,2.588,2.588,0,0,1,.433.879,4.048,4.048,0,0,1,.154,1.146,2.943,2.943,0,0,1-.2,1.1,2.292,2.292,0,0,1-.594.843,2.676,2.676,0,0,1-.932.54,3.749,3.749,0,0,1-1.223.19,1.57,1.57,0,0,1-.481-.071c-.148-.047-.291-.095-.422-.148s-.261-.1-.386-.148a1.085,1.085,0,0,0-.386-.071.875.875,0,0,0-.392.1.9.9,0,0,0-.321.273h-.178v-4.738c0-.368-.012-.665-.03-.9a2.215,2.215,0,0,0-.107-.57.872.872,0,0,0-.208-.35,1.839,1.839,0,0,0-.344-.243l-.107-.059a.236.236,0,0,0-.012-.036v-.077Zm2.458,4.869a2.639,2.639,0,0,0,.244,1.229.748.748,0,0,0,.665.457.912.912,0,0,0,.813-.469,2.374,2.374,0,0,0,.3-1.265,3.365,3.365,0,0,0-.427-1.811,1.308,1.308,0,0,0-1.164-.671c-.267,0-.41.059-.433.178v2.351Z" transform="translate(-1401.541 -298.763)" fill="#6b6c6e"/>
            <path id="Path_19975" data-name="Path 19975" d="M1632.437,360.388a3.53,3.53,0,0,1,.208-1.241,2.634,2.634,0,0,1,.582-.944,2.43,2.43,0,0,1,.914-.6,3.23,3.23,0,0,1,1.205-.214,2.452,2.452,0,0,1,1,.2,2.125,2.125,0,0,1,.754.552,2.5,2.5,0,0,1,.481.867,3.569,3.569,0,0,1,.172,1.128l-3.509.059a3.51,3.51,0,0,0,.2.724,1.664,1.664,0,0,0,.4.582,1.69,1.69,0,0,0,.641.362,2.413,2.413,0,0,0,.908.089,1.3,1.3,0,0,0,.546-.226,2.222,2.222,0,0,0,.6-.635l.19.166a2.562,2.562,0,0,1-.546.736,3.311,3.311,0,0,1-.677.5,2.765,2.765,0,0,1-.718.279,2.818,2.818,0,0,1-.665.089,3.205,3.205,0,0,1-1.1-.178,2.445,2.445,0,0,1-.837-.493,2.1,2.1,0,0,1-.534-.772,2.707,2.707,0,0,1-.208-1.027m1.757-.576h1.36a.7.7,0,0,0,.463-.16.737.737,0,0,0,.232-.362,1.109,1.109,0,0,0,.03-.469,1.184,1.184,0,0,0-.172-.463,1.161,1.161,0,0,0-.35-.35.9.9,0,0,0-.511-.142.881.881,0,0,0-.784.534,2.759,2.759,0,0,0-.267,1.413" transform="translate(-1458.105 -319.224)" fill="#6b6c6e"/>
            <path id="Path_19976" data-name="Path 19976" d="M1682.976,345.847v-.19a2.432,2.432,0,0,0,1-.629,6.9,6.9,0,0,0,1.1-1.371h.267v1.52h1.556v.665h-1.556v1.277c-.006.35-.012.719-.012,1.092v.956a.768.768,0,0,0,.125.517.626.626,0,0,0,.463.131,1.032,1.032,0,0,0,.2-.03,1.048,1.048,0,0,0,.249-.1,1.482,1.482,0,0,0,.273-.2,1.739,1.739,0,0,0,.279-.327l.119.154a2.335,2.335,0,0,1-.5.653,2.524,2.524,0,0,1-.546.38,2.043,2.043,0,0,1-.891.232,2.6,2.6,0,0,1-.7-.077.884.884,0,0,1-.445-.267,1.122,1.122,0,0,1-.232-.523,4.015,4.015,0,0,1-.071-.831v-3.034Z" transform="translate(-1503.247 -306.956)" fill="#6b6c6e"/>
            <path id="Path_19977" data-name="Path 19977" d="M1719.226,345.847v-.19a2.431,2.431,0,0,0,1-.629,6.9,6.9,0,0,0,1.1-1.371h.267v1.52h1.556v.665h-1.556v1.277c-.006.35-.012.719-.012,1.092v.956a.767.767,0,0,0,.125.517.626.626,0,0,0,.463.131,1.032,1.032,0,0,0,.2-.03,1.049,1.049,0,0,0,.249-.1,1.485,1.485,0,0,0,.273-.2,1.739,1.739,0,0,0,.279-.327l.119.154a2.335,2.335,0,0,1-.5.653,2.524,2.524,0,0,1-.546.38,2.043,2.043,0,0,1-.891.232,2.6,2.6,0,0,1-.7-.077.884.884,0,0,1-.445-.267,1.122,1.122,0,0,1-.232-.523,4.015,4.015,0,0,1-.071-.831v-3.034Z" transform="translate(-1535.626 -306.956)" fill="#6b6c6e"/>
            <path id="Path_19978" data-name="Path 19978" d="M1758.368,360.388a3.532,3.532,0,0,1,.2-1.241,2.638,2.638,0,0,1,.582-.944,2.478,2.478,0,0,1,.914-.6,3.231,3.231,0,0,1,1.205-.214,2.451,2.451,0,0,1,1,.2,2.125,2.125,0,0,1,.754.552,2.5,2.5,0,0,1,.481.867,3.566,3.566,0,0,1,.172,1.128l-3.509.059a3.185,3.185,0,0,0,.2.724,1.665,1.665,0,0,0,.4.582,1.712,1.712,0,0,0,.635.362,2.4,2.4,0,0,0,.908.089,1.3,1.3,0,0,0,.546-.226,2.318,2.318,0,0,0,.606-.635l.19.166a2.677,2.677,0,0,1-.546.736,3.312,3.312,0,0,1-.677.5,2.681,2.681,0,0,1-.718.279,2.818,2.818,0,0,1-.665.089,3.2,3.2,0,0,1-1.1-.178,2.441,2.441,0,0,1-.837-.493,2.1,2.1,0,0,1-.534-.772,2.444,2.444,0,0,1-.208-1.027m1.757-.576h1.36a.7.7,0,0,0,.463-.16.736.736,0,0,0,.231-.362,1.159,1.159,0,0,0-.142-.932,1.159,1.159,0,0,0-.35-.35.9.9,0,0,0-.51-.142.88.88,0,0,0-.784.534,2.758,2.758,0,0,0-.267,1.413" transform="translate(-1570.588 -319.224)" fill="#6b6c6e"/>
            <path id="Path_19979" data-name="Path 19979" d="M1810.464,363.185v-.131a.844.844,0,0,1,.012-.166v-.059l.107-.012c.226-.024.4-.208.51-.558a4.358,4.358,0,0,0,.172-1.33c0-.368-.006-.665-.024-.891a2.24,2.24,0,0,0-.1-.564.819.819,0,0,0-.214-.35,1.839,1.839,0,0,0-.344-.243l-.107-.059v-.036a.241.241,0,0,1-.012-.083l2.12-.867h.327v1.71c.053-.131.125-.291.208-.469a3.782,3.782,0,0,1,.3-.517,2.563,2.563,0,0,1,.4-.439.968.968,0,0,1,.481-.237.765.765,0,0,1,.748.16,1.307,1.307,0,0,1,.327.719.737.737,0,0,1-.03.344.817.817,0,0,1-.142.267.56.56,0,0,1-.208.166.26.26,0,0,1-.208.018,2.257,2.257,0,0,1-.433-.214.835.835,0,0,0-.457-.131.819.819,0,0,0-.451.16,2.313,2.313,0,0,0-.546.6v1.033a3.655,3.655,0,0,0,.184,1.277c.119.327.285.5.5.528l.119.012a.265.265,0,0,0,.012.059v.3h-3.248Z" transform="translate(-1617.121 -319.621)" fill="#6b6c6e"/>
            <path id="Path_19980" data-name="Path 19980" d="M1850.884,391.9a.941.941,0,0,1,.244-.683.9.9,0,0,1,.665-.249.868.868,0,0,1,.653.249.926.926,0,0,1,.243.683.94.94,0,0,1-.243.683.868.868,0,0,1-.653.249.886.886,0,0,1-.665-.249.94.94,0,0,1-.244-.683" transform="translate(-1653.224 -349.218)" fill="#6b6c6e"/>
          </g>
        </g>
      </g>
    </g>
  </g>
</svg>
