<?xml version="1.0" encoding="utf-8"?>
<!-- Generator: Adobe Illustrator 27.9.0, SVG Export Plug-In . SVG Version: 6.00 Build 0)  -->
<svg version="1.1" id="Layer_1" xmlns="http://www.w3.org/2000/svg" xmlns:xlink="http://www.w3.org/1999/xlink" x="0px" y="0px"
	 viewBox="0 0 153 43" style="enable-background:new 0 0 153 43;" xml:space="preserve">
<style type="text/css">
	.st0{fill:#454545;}
	.st1{fill:#818181;}
	.st2{fill-rule:evenodd;clip-rule:evenodd;fill:#454545;}
	.st3{fill-rule:evenodd;clip-rule:evenodd;fill:#818181;}
	.st4{opacity:0.269;}
	.st5{fill:#25F4EE;}
	.st6{fill:#FE2C55;}
	.st7{fill:#FFFFFF;}
</style>
<g id="Group_5430" transform="translate(-1331 -2888.716)" class="st4">
	<g id="TikTok-Logomark_Wordmark-Logo.wine" transform="translate(1331 2888.716)">
		<path id="Path_20444" class="st5" d="M12.3,17.7v-1.4c-0.5-0.1-1-0.1-1.5-0.1C4.9,16.2,0,21,0,27c0,3.6,1.7,6.9,4.7,8.9
			c-4.1-4.4-3.8-11.2,0.5-15.3C7.1,18.8,9.7,17.8,12.3,17.7z"/>
		<path id="Path_20445" class="st5" d="M12.6,33.5c2.7,0,4.8-2.1,5-4.7V5.1h4.3c-0.1-0.5-0.1-1-0.1-1.5h-5.9v23.6
			c-0.1,2.7-2.3,4.8-5,4.8c-0.8,0-1.6-0.2-2.3-0.6C9.5,32.7,11,33.5,12.6,33.5L12.6,33.5z M30,13.1v-1.3c-1.6,0-3.1-0.5-4.5-1.4
			C26.7,11.8,28.2,12.7,30,13.1L30,13.1z"/>
		<path id="Path_20446" class="st6" d="M25.5,10.5c-1.3-1.5-2-3.4-2-5.4h-1.6C22.3,7.3,23.6,9.2,25.5,10.5z M10.9,22.1
			c-2.7,0-5,2.2-4.9,5c0,1.8,1,3.5,2.7,4.4c-1.6-2.2-1.1-5.3,1.1-6.9c0.8-0.6,1.9-0.9,2.9-0.9c0.5,0,1,0.1,1.5,0.2v-6
			c-0.5-0.1-1-0.1-1.5-0.1h-0.3v4.6C11.9,22.1,11.4,22.1,10.9,22.1L10.9,22.1z"/>
		<path id="Path_20447" class="st6" d="M30,13.1v4.6c-2.9,0-5.8-0.9-8.2-2.7v12c0,6-4.9,10.9-10.9,10.9c-2.2,0-4.4-0.7-6.2-2
			c4.1,4.4,11,4.6,15.3,0.6c2.2-2.1,3.5-4.9,3.5-7.9v-12c2.4,1.7,5.3,2.6,8.2,2.6v-5.9C31.1,13.3,30.5,13.2,30,13.1z"/>
		<path id="Path_20448" class="st7" d="M21.8,27.1V15c2.4,1.7,5.3,2.6,8.2,2.6v-4.6c-1.7-0.4-3.3-1.3-4.5-2.6
			c-1.9-1.2-3.2-3.2-3.6-5.4h-4.3v23.7c-0.1,2.7-2.4,4.9-5.2,4.8c-1.5-0.1-2.9-0.8-3.8-2c-2.4-1.3-3.4-4.3-2.1-6.7
			c0.9-1.6,2.5-2.6,4.4-2.7c0.5,0,1,0.1,1.5,0.2v-4.6c-6,0.1-10.8,5-10.7,11c0,2.7,1.1,5.3,3,7.3c1.8,1.2,4,1.9,6.2,1.8
			C16.9,37.9,21.8,33.1,21.8,27.1z"/>
		<g id="Group_5429" transform="translate(37.053 8.175)">
			<path id="Path_20449" class="st7" d="M13.4,29.8H7.1V9.4H0.9l0-5.6h19.3l-1.8,5.6h-5V29.8z M64.2,29.8H58V9.4h-6.3l0-5.6h19.7
				l-1.8,5.6h-5.4L64.2,29.8z M21.3,12.1h6.2v17.7h-6.1L21.3,12.1z M38,21.2l-1.8,1.8v6.8H30v-26h6.2v12.1l6.1-6h7.4l-7.7,7.5
				l8.7,12.4h-6.8L38,21.2z M103.4,21.2l-1.8,1.8v6.8h-6.2l-0.1-26h6.2v12.1l6.1-6h7.4l-7.7,7.5l8.6,12.4h-6.8L103.4,21.2z"/>
			<path id="Path_20456" class="st7" d="M24.4,3.9c1.7,0,3.1,1.4,3.1,3.1s-1.4,3.1-3.1,3.1S21.3,8.7,21.3,7c0,0,0,0,0,0
				C21.3,5.2,22.7,3.9,24.4,3.9z"/>
			<path id="Path_20450" class="st5" d="M70.7,19.2c0-5.5,4.2-10.1,9.7-10.5h-0.9C73.6,9,69.2,14,69.5,19.8c0.3,5.3,4.6,9.6,9.9,9.9
				h0.9C74.9,29.3,70.6,24.7,70.7,19.2z"/>
			<path id="Path_20451" class="st6" d="M82.8,8.6h-0.9C87.7,9.1,92,14.2,91.5,20c-0.4,5.1-4.5,9.2-9.7,9.7h0.9
				c5.8-0.1,10.5-4.8,10.5-10.7C93.2,13.3,88.6,8.6,82.8,8.6L82.8,8.6z"/>
			<path id="Path_20452" class="st7" d="M81.1,24.3c-2.8,0-5.1-2.3-5.1-5.1s2.3-5.1,5.1-5.1c2.8,0,5.1,2.3,5.1,5.1l0,0
				C86.3,22,84,24.3,81.1,24.3z M81.1,8.6c-5.8,0-10.6,4.7-10.6,10.6c0,5.8,4.7,10.6,10.6,10.6S91.7,25,91.7,19.2
				c0-2.8-1.1-5.5-3.1-7.5C86.6,9.7,83.9,8.6,81.1,8.6L81.1,8.6z"/>
		</g>
	</g>
</g>
</svg>
