<?xml version="1.0" encoding="utf-8"?>
<!-- Generator: Adobe Illustrator 27.9.0, SVG Export Plug-In . SVG Version: 6.00 Build 0)  -->
<svg version="1.1" id="Layer_1" xmlns="http://www.w3.org/2000/svg" xmlns:xlink="http://www.w3.org/1999/xlink" x="0px" y="0px"
	 viewBox="0 0 153 43" style="enable-background:new 0 0 153 43;" xml:space="preserve">
<style type="text/css">
	.st0{fill:#454545;}
	.st1{fill:#818181;}
	.st2{fill-rule:evenodd;clip-rule:evenodd;fill:#454545;}
	.st3{fill-rule:evenodd;clip-rule:evenodd;fill:#818181;}
	.st4{opacity:0.269;}
	.st5{fill:#25F4EE;}
	.st6{fill:#FE2C55;}
	.st7{fill:#FFFFFF;}
</style>
<g id="LinkedIn-Wordmark-Black-Logo.wine" transform="translate(0 0)">
	<path id="Path_20442" class="st0" d="M150.8,37.8c0.4,0,0.7-0.3,0.7-0.7c0,0,0,0,0,0c0-0.5-0.3-0.8-0.9-0.8h-1V39h0.4v-1.2h0.5l0,0
		l0.7,1.2h0.4L150.8,37.8L150.8,37.8z M150.3,37.5h-0.4v-0.9h0.6c0.3,0,0.6,0,0.6,0.4C151.1,37.5,150.7,37.5,150.3,37.5 M0.1,8.3
		h5.7v20.8h10.6v5.3H0.1V8.3z M18.9,16.7h5.5v17.7h-5.5V16.7z M21.6,7.9c1.8,0,3.2,1.4,3.2,3.2c0,1.8-1.4,3.2-3.2,3.2
		c-1.8,0-3.2-1.4-3.2-3.2C18.4,9.4,19.9,8,21.6,7.9C21.6,8,21.6,8,21.6,7.9 M47.3,8.3h5.5v15.6l6.2-7.2h6.7l-7.2,8.2l7,9.5h-6.9
		l-5.8-8.7h-0.1v8.7h-5.5L47.3,8.3z M27.4,16.7h5.3v2.4h0.1c1.1-1.8,3.1-2.9,5.2-2.9c5.6,0,6.6,3.7,6.6,8.4v9.7H39v-8.6
		c0-2,0-4.7-2.9-4.7c-2.9,0-3.3,2.2-3.3,4.5v8.7h-5.5L27.4,16.7z"/>
	<path id="Path_20443" class="st0" d="M77.3,23.5c0-1.8-1.4-3.3-3.2-3.4c-0.1,0-0.1,0-0.2,0c-2-0.1-3.7,1.4-3.9,3.4H77.3z
		 M81.9,31.3c-1.8,2.2-4.6,3.5-7.5,3.5c-5.5,0-9.9-3.7-9.9-9.3s4.4-9.3,9.9-9.3c5.1,0,8.3,3.7,8.3,9.3v1.7H70c0.3,2,2.1,3.5,4.1,3.4
		c1.6,0,3.1-0.8,3.9-2.2L81.9,31.3z M94.2,21c-2.3-0.1-4.3,1.6-4.4,3.9c0,0.2,0,0.4,0,0.6c-0.1,2.4,1.9,4.4,4.3,4.5
		c2.4,0.1,4.4-1.9,4.5-4.3c0-0.1,0-0.1,0-0.2c0.2-2.3-1.5-4.3-3.8-4.5C94.6,21,94.4,21,94.2,21 M103.7,34.4h-5v-2.3h-0.1
		c-1.3,1.7-3.3,2.8-5.5,2.8c-5.3,0-8.7-3.8-8.7-9.2c0-4.9,3.1-9.5,8.1-9.5c2.3,0,4.4,0.6,5.6,2.3h0.1V8.3h5.5L103.7,34.4z
		 M140.7,34.4h-5.5v-8.6c0-2,0-4.7-2.9-4.7c-2.9,0-3.3,2.2-3.3,4.5v8.7h-5.5V16.7h5.3v2.4h0.1c1.1-1.8,3.1-2.9,5.2-2.9
		c5.6,0,6.6,3.7,6.6,8.4L140.7,34.4z M117.4,14.3c-1.8,0-3.2-1.4-3.2-3.2c0-1.8,1.4-3.2,3.2-3.2c1.8,0,3.2,1.4,3.2,3.2
		C120.6,12.9,119.1,14.3,117.4,14.3 M120.1,34.4h-5.5V16.7h5.5V34.4z M143.4,2.9h-31.5c-1.5,0-2.7,1.2-2.7,2.7v31.7
		c0,1.5,1.2,2.7,2.7,2.7h31.5c1.5,0,2.7-1.2,2.7-2.7V5.5C146.1,4,144.9,2.8,143.4,2.9 M150.4,35.1c-1.4,0-2.5,1.2-2.5,2.5
		c0,1.4,1.2,2.5,2.5,2.5c1.4,0,2.5-1.2,2.5-2.5C152.9,36.2,151.8,35.1,150.4,35.1L150.4,35.1 M150.4,39.8c-1.2,0-2.2-1-2.3-2.2
		c0-1.2,1-2.2,2.2-2.3c1.2,0,2.2,1,2.3,2.2c0,0,0,0,0,0v0C152.6,38.8,151.6,39.8,150.4,39.8L150.4,39.8"/>
</g>
</svg>
