<?xml version="1.0" encoding="utf-8"?>
<!-- Generator: Adobe Illustrator 27.9.0, SVG Export Plug-In . SVG Version: 6.00 Build 0)  -->
<svg version="1.1" id="Layer_1" xmlns="http://www.w3.org/2000/svg" xmlns:xlink="http://www.w3.org/1999/xlink" x="0px" y="0px"
	 viewBox="0 0 43 43" style="enable-background:new 0 0 43 43;" xml:space="preserve">
<style type="text/css">
	.st0{fill:#454545;}
	.st1{fill:#818181;}
	.st2{fill-rule:evenodd;clip-rule:evenodd;fill:#454545;}
	.st3{fill-rule:evenodd;clip-rule:evenodd;fill:#818181;}
	.st4{opacity:0.269;}
	.st5{fill:#25F4EE;}
	.st6{fill:#FE2C55;}
	.st7{fill:#FFFFFF;}
</style>
<path id="Path_20464_00000162309822803330780920000012093781412708250023_" class="st0" d="M36.2,0C39.9,0,43,3.1,43,6.9v29.3
	c0,3.8-3.1,6.8-6.8,6.8H6.9C3.1,43,0,39.9,0,36.2V6.9C0,3.1,3.1,0,6.9,0H36.2z"/>
<path id="Path_20465_00000064323876181761591950000011421422205958761115_" class="st1" d="M36,28.9c-0.1-0.4-0.7-0.7-0.7-0.7
	l-0.2-0.1c-1-0.5-1.9-1-2.7-1.7c-0.6-0.5-1.1-1.1-1.5-1.8c-0.4-0.5-0.7-1.1-0.9-1.8c-0.1-0.1-0.1-0.3,0-0.4c0.1-0.1,0.1-0.2,0.2-0.2
	c0.3-0.2,0.9-0.6,1.2-0.8c0.3-0.2,0.5-0.4,0.7-0.5c0.4-0.3,0.7-0.6,1-1c0.2-0.5,0.3-1,0.1-1.5c-0.3-0.7-1-1.1-1.7-1.1
	c-0.2,0-0.4,0-0.6,0.1c-0.4,0.1-0.9,0.2-1.3,0.4c0,0,0,0-0.1,0c0,0,0,0,0,0c0.1-1.1,0.1-2.2,0-3.3c-0.1-0.9-0.3-1.9-0.7-2.7
	c-0.7-1.4-1.7-2.5-3.1-3.3c-2.7-1.5-6-1.5-8.8,0c-1.3,0.8-2.4,1.9-3.1,3.3c-0.4,0.9-0.6,1.8-0.7,2.7c-0.1,1.1-0.1,2.2,0,3.3
	c0,0,0,0,0,0c0,0,0,0,0,0c-0.4-0.2-0.8-0.3-1.3-0.4c-0.2,0-0.4-0.1-0.6-0.1c-0.8,0-1.4,0.4-1.7,1.1c-0.2,0.5-0.2,1,0.1,1.5
	c0.2,0.4,0.6,0.8,1,1c0.1,0.1,0.4,0.3,0.7,0.5c0.3,0.2,0.9,0.6,1.2,0.8c0.1,0.1,0.2,0.2,0.2,0.3c0.1,0.1,0.1,0.3,0,0.5
	c-0.2,0.6-0.5,1.2-0.8,1.7c-0.4,0.7-1,1.2-1.5,1.8c-0.8,0.7-1.7,1.3-2.7,1.7c0,0-0.1,0.1-0.2,0.1c0,0-0.6,0.3-0.7,0.7
	c-0.1,0.6,0.2,1.2,0.7,1.4c0.7,0.4,1.4,0.7,2.2,0.9c0.1,0,0.3,0.1,0.4,0.1c0.1,0,0.3,0.1,0.3,0.2c0.1,0.1,0.1,0.3,0.2,0.5
	c0.1,0.4,0.3,0.7,0.6,1c0.5,0.3,1.1,0.4,1.6,0.3c0.9,0,1.8,0.1,2.6,0.4c0.5,0.2,1,0.4,1.4,0.7c2.7,1.9,6.3,1.9,9,0
	c0.4-0.3,0.9-0.5,1.4-0.7c0.8-0.3,1.7-0.4,2.6-0.4c0.6,0,1.1-0.1,1.6-0.3c0.3-0.2,0.5-0.6,0.6-1c0-0.1,0.1-0.3,0.1-0.4
	c0.1-0.1,0.2-0.2,0.3-0.2c0.1,0,0.3-0.1,0.4-0.1c0.7-0.2,1.4-0.4,2-0.8C36,29.9,36.1,29.2,36,28.9L36,28.9z"/>
<path id="Path_20466_00000048493636638550107110000002038847185989492885_" d="M36.8,28.5c-0.2-0.5-0.6-0.9-1.1-1.2
	c-0.1,0-0.2-0.1-0.2-0.1c-0.1-0.1-0.3-0.1-0.4-0.2c-1.3-0.7-2.5-1.7-3.4-2.9c-0.2-0.3-0.4-0.7-0.6-1c-0.1-0.1-0.1-0.3,0-0.4
	c0-0.1,0.1-0.1,0.2-0.2c0.2-0.2,0.5-0.3,0.7-0.4c0.3-0.2,0.6-0.4,0.7-0.5c0.5-0.3,1-0.8,1.3-1.4c0.4-0.7,0.4-1.5,0.1-2.2
	c-0.4-1-1.4-1.7-2.6-1.7c-0.3,0-0.5,0-0.7,0.1l-0.2,0c0-0.7,0-1.5-0.1-2.2c-0.1-1.9-0.8-3.7-2.1-5c-0.6-0.7-1.3-1.3-2.1-1.7
	c-3-1.7-6.7-1.7-9.7,0c-0.8,0.4-1.5,1-2.1,1.7c-1.3,1.4-2,3.2-2.1,5c-0.1,0.7-0.1,1.5-0.1,2.2l-0.2,0c-0.2-0.1-0.5-0.1-0.7-0.1
	c-1.1,0-2.2,0.6-2.6,1.7c-0.3,0.7-0.2,1.5,0.1,2.2c0.3,0.5,0.7,1,1.3,1.4c0.2,0.1,0.4,0.3,0.7,0.5c0.2,0.1,0.4,0.3,0.7,0.4
	c0.1,0.1,0.2,0.1,0.2,0.2c0.1,0.1,0,0.3,0,0.4c-0.2,0.4-0.4,0.7-0.6,1c-0.8,1.2-2,2.2-3.3,2.8c-0.7,0.4-1.5,0.7-1.8,1.5
	c-0.2,0.7,0,1.6,0.5,2.1c0.2,0.2,0.5,0.4,0.8,0.6c0.6,0.3,1.3,0.6,1.9,0.8c0.1,0,0.3,0.1,0.4,0.2c0.2,0.2,0.2,0.5,0.5,0.9
	c0.2,0.2,0.3,0.4,0.6,0.6c0.6,0.4,1.4,0.5,2.1,0.5c0.8,0,1.6,0.1,2.4,0.4c0.4,0.2,0.8,0.4,1.2,0.6c3,2.1,6.9,2.1,9.9,0
	c0.4-0.2,0.8-0.5,1.2-0.6c0.8-0.2,1.6-0.4,2.4-0.4c0.7,0,1.5-0.1,2.1-0.5c0.3-0.2,0.5-0.4,0.6-0.7c0.2-0.4,0.2-0.6,0.4-0.8
	c0.1-0.1,0.2-0.1,0.4-0.2c0.7-0.2,1.3-0.4,2-0.8c0.3-0.2,0.6-0.4,0.8-0.6l0,0C36.9,30.1,37.1,29.3,36.8,28.5L36.8,28.5z M34.7,29.7
	c-1.3,0.7-2.2,0.7-2.9,1.1c-0.6,0.4-0.2,1.2-0.7,1.5c-0.5,0.4-2,0-4,0.6c-1.6,0.5-2.7,2.1-5.6,2.1s-4-1.5-5.6-2.1
	c-2-0.7-3.5-0.3-4-0.6c-0.4-0.3-0.1-1.1-0.7-1.5c-0.7-0.4-1.6-0.4-2.9-1.1C7.5,29.2,8,29,8.2,28.8c4.8-2.3,5.5-5.9,5.6-6.2
	c0.1-0.3,0-0.7-0.3-0.9c-0.3-0.3-1.9-1.3-2.3-1.5c-0.7-0.5-1-1-0.8-1.6c0.2-0.4,0.5-0.6,1-0.6c0.1,0,0.3,0,0.4,0
	c0.8,0.2,1.5,0.5,1.9,0.7c0.1,0,0.1,0,0.2,0c0.2,0,0.3-0.1,0.3-0.4c-0.1-1.3-0.1-2.7,0-4c0.1-1.5,0.6-2.9,1.7-4.1
	c1.5-1.6,3.5-2.4,5.7-2.4c2.1-0.1,4.2,0.8,5.7,2.4c1,1.1,1.6,2.5,1.7,4.1c0.1,1.3,0.1,2.7,0,4c0,0.3,0.1,0.4,0.3,0.4
	c0.1,0,0.1,0,0.2,0c0.4-0.1,1.2-0.5,1.9-0.7c0.1,0,0.3,0,0.4,0c0.4,0,0.8,0.2,1,0.6c0.2,0.6-0.1,1.1-0.8,1.6
	c-0.4,0.3-1.9,1.2-2.3,1.5c-0.3,0.2-0.4,0.6-0.3,0.9c0,0.3,0.8,3.8,5.6,6.2C35,29,35.5,29.2,34.7,29.7L34.7,29.7z"/>
</svg>
