<?xml version="1.0" encoding="utf-8"?>
<!-- Generator: Adobe Illustrator 27.9.0, SVG Export Plug-In . SVG Version: 6.00 Build 0)  -->
<svg version="1.1" id="Layer_1" xmlns="http://www.w3.org/2000/svg" xmlns:xlink="http://www.w3.org/1999/xlink" x="0px" y="0px"
	 viewBox="0 0 153 43" style="enable-background:new 0 0 153 43;" xml:space="preserve">
<style type="text/css">
	.st0{fill:#454545;}
	.st1{fill:#818181;}
	.st2{fill-rule:evenodd;clip-rule:evenodd;fill:#454545;}
	.st3{fill-rule:evenodd;clip-rule:evenodd;fill:#818181;}
	.st4{opacity:0.269;}
	.st5{fill:#25F4EE;}
	.st6{fill:#FE2C55;}
	.st7{fill:#FFFFFF;}
</style>
<g>
	<g>
		<path id="Path_20457" class="st2" d="M146.5,35.4c-0.1-0.7-0.4-1.4-0.9-1.9c-0.7-0.6-1.6-1-2.5-0.9c-0.8,0-1.5,0.3-2.1,0.8
			c-0.6,0.5-1,1.3-1.2,2L146.5,35.4L146.5,35.4z M143.4,43c-1.6,0.1-3.2-0.6-4.3-1.8c-1.1-1.2-1.7-2.8-1.7-4.5
			c0-1.6,0.5-3.2,1.6-4.4c1-1.2,2.5-1.9,4.1-1.8c1.6-0.1,3.1,0.5,4.2,1.7c1.1,1.2,1.6,2.9,1.6,4.5l0,0.4h-9.2c0,1,0.4,2,1.2,2.8
			c0.7,0.7,1.6,1,2.5,1c1.4,0.1,2.7-0.7,3.2-2l2,0.8c-0.4,0.9-1,1.7-1.9,2.3C145.6,42.7,144.5,43,143.4,43L143.4,43L143.4,43z
			 M131.7,43c-1.1,0-2.3-0.3-3.2-1c-0.8-0.6-1.5-1.4-1.9-2.4l2-0.8c0.5,1.3,1.7,2.2,3.2,2.2c0.6,0,1.2-0.1,1.7-0.5
			c0.4-0.3,0.7-0.7,0.7-1.2c0-0.8-0.5-1.3-1.6-1.5l-2.4-0.6c-0.8-0.2-1.5-0.6-2.1-1.1c-0.7-0.5-1-1.3-1-2.2c0-1,0.5-2,1.4-2.5
			c1-0.7,2.1-1,3.2-1c1,0,1.9,0.2,2.8,0.7c0.8,0.5,1.4,1.2,1.7,2l-1.9,0.8c-0.4-1-1.5-1.7-2.7-1.5c-0.6,0-1.1,0.1-1.6,0.4
			c-0.4,0.2-0.7,0.6-0.7,1.1c0,0.7,0.5,1.1,1.5,1.4l2.3,0.5c0.9,0.2,1.8,0.6,2.4,1.3c0.5,0.6,0.8,1.3,0.8,2.1c0,1-0.5,2-1.3,2.6
			C134.1,42.7,132.9,43,131.7,43 M116.8,30.9v1.6h0.1c0.4-0.6,0.9-1.1,1.5-1.4c0.7-0.4,1.4-0.6,2.2-0.6c1.2-0.1,2.5,0.4,3.3,1.3
			c0.8,1,1.2,2.3,1.1,3.6v7.1h-2.2v-6.8c0-2.2-1-3.2-2.9-3.2c-0.9,0-1.7,0.4-2.2,1.1c-0.6,0.7-0.9,1.6-0.9,2.5v6.5h-2.2V30.9
			L116.8,30.9L116.8,30.9z M110.5,35.4c-0.1-0.7-0.4-1.4-0.9-1.9c-0.7-0.6-1.6-1-2.5-0.9c-0.8,0-1.5,0.3-2.1,0.8
			c-0.6,0.5-1,1.3-1.2,2L110.5,35.4L110.5,35.4z M107.4,43c-1.6,0.1-3.2-0.6-4.3-1.8c-1.1-1.2-1.7-2.8-1.7-4.5
			c0-1.6,0.5-3.2,1.6-4.4c1-1.2,2.5-1.9,4.1-1.8c1.6-0.1,3.1,0.5,4.2,1.7c1.1,1.2,1.6,2.9,1.6,4.5l0,0.4h-9.2c0,1,0.4,2,1.2,2.8
			c0.7,0.7,1.6,1,2.5,1c1.4,0.1,2.7-0.7,3.2-2l2,0.8c-0.4,0.9-1,1.7-1.9,2.3C109.6,42.7,108.5,43,107.4,43L107.4,43z M94.2,43
			c-1.3,0-2.6-0.4-3.6-1.2c-1.2-0.8-2-2-2.3-3.4l2-0.8c0.2,0.9,0.7,1.8,1.5,2.4c0.7,0.6,1.6,1,2.5,1c0.9,0,1.7-0.2,2.4-0.8
			c0.7-0.5,1-1.2,1-2c0-0.9-0.3-1.7-1-2.2c-1-0.7-2.1-1.1-3.2-1.4c-1.3-0.3-2.4-1-3.4-1.8c-0.8-0.8-1.2-1.8-1.2-2.9
			c0-1.2,0.5-2.4,1.5-3.2c1-0.9,2.4-1.4,3.8-1.4c1.3-0.1,2.5,0.3,3.5,1.1c0.8,0.6,1.4,1.4,1.8,2.4l-2,0.8c-0.2-0.6-0.6-1.1-1.1-1.5
			c-0.6-0.5-1.4-0.7-2.2-0.7c-0.8,0-1.5,0.2-2.2,0.7c-0.6,0.4-0.9,1.1-0.9,1.7c0,0.6,0.3,1.2,0.8,1.6c0.7,0.5,1.5,0.9,2.4,1.2
			c0.7,0.2,1.4,0.5,2.1,0.8c0.6,0.3,1.2,0.6,1.7,1c0.6,0.4,1,0.9,1.3,1.6c0.3,0.7,0.5,1.4,0.4,2.2c0,0.8-0.2,1.5-0.5,2.2
			c-0.3,0.6-0.8,1.2-1.4,1.5C96.9,42.6,95.6,43,94.2,43 M80.6,41c1,0,2-0.4,2.6-1.1c1.4-1.8,1.4-4.3,0-6.1c-1.3-1.4-3.6-1.5-5-0.2
			c-0.1,0.1-0.1,0.1-0.2,0.2c-1.5,1.8-1.5,4.3,0,6.1C78.7,40.6,79.6,41,80.6,41 M80.3,43c-1.5,0-2.9-0.6-3.9-1.8
			c-2.2-2.5-2.2-6.3,0-8.9c1-1.1,2.4-1.8,3.9-1.8c0.8,0,1.7,0.2,2.4,0.6c0.6,0.3,1.2,0.8,1.6,1.4h0.1l-0.1-1.6v-5.4h2.2v17h-2.1V41
			h-0.1c-0.4,0.6-0.9,1.1-1.6,1.4C81.9,42.8,81.1,43,80.3,43 M63.7,35.9h5.7l-2.8-7.7h-0.1L63.7,35.9L63.7,35.9z M58.8,42.6l6.4-17
			h2.5l6.4,17h-2.4L70.1,38h-7.2l-1.7,4.6H58.8L58.8,42.6z M129.8,12.9l5.6-2.3c-0.4-0.9-1.3-1.4-2.3-1.3
			C131.2,9.4,129.7,10.9,129.8,12.9C129.8,12.8,129.8,12.9,129.8,12.9 M136.3,15.1l2.1,1.4c-1.2,1.7-3.1,2.8-5.2,2.8
			c-3.3,0-6-2.6-6.1-5.9c0-0.1,0-0.2,0-0.3c0-3.7,2.6-6.2,5.8-6.2c2.4,0.1,4.6,1.6,5.3,4l0.3,0.7l-8.3,3.4c0.5,1.2,1.7,1.9,3,1.9
			C134.5,16.9,135.7,16.2,136.3,15.1 M122.9,18.9h2.7V0.7h-2.7V18.9z M118.4,13.1c0-2.2-1.5-3.8-3.3-3.8c-2.1,0.2-3.6,2-3.4,4.1
			c0.2,1.8,1.6,3.3,3.4,3.4c1.9-0.1,3.4-1.7,3.3-3.6C118.4,13.2,118.4,13.1,118.4,13.1L118.4,13.1z M120.8,7.2v11.1
			c0,4.6-2.7,6.5-5.9,6.5c-2.4,0-4.6-1.4-5.5-3.7l2.4-1c0.5,1.3,1.7,2.2,3.1,2.2c2,0,3.3-1.3,3.3-3.6v-0.9h-0.1
			c-0.8,0.9-2,1.4-3.3,1.4c-3.4-0.1-6.1-3.1-5.9-6.5c0.1-3.2,2.7-5.8,5.9-5.9c1.2,0,2.4,0.5,3.3,1.4h0.1v-1H120.8L120.8,7.2z
			 M91,13.1c-0.2-1.9-1.8-3.3-3.7-3.1c-1.9,0.2-3.3,1.8-3.1,3.7c0.2,1.8,1.7,3.1,3.4,3.1c2-0.1,3.5-1.7,3.4-3.7
			C91,13.2,91,13.1,91,13.1 M93.7,13.1c0,3.4-2.8,6.1-6.2,6c-3.4,0-6.1-2.8-6-6.2c0-3.3,2.8-6,6.1-6c3.4,0,6.1,2.7,6.1,6
			C93.7,13,93.7,13,93.7,13.1 M104.7,13.1c-0.2-1.9-1.8-3.3-3.7-3.1c-1.9,0.2-3.3,1.8-3.1,3.7c0.2,1.8,1.7,3.1,3.4,3.1
			c2-0.1,3.5-1.7,3.4-3.7C104.8,13.2,104.8,13.1,104.7,13.1 M107.4,13.1c0,3.4-2.8,6.1-6.2,6c-3.4,0-6.1-2.8-6-6.2
			c0-3.3,2.8-6,6.1-6c3.4,0,6.1,2.7,6.1,6C107.4,13,107.4,13,107.4,13.1 M71,19.3c-5.3,0.1-9.7-4.2-9.8-9.5
			c-0.1-5.3,4.2-9.7,9.5-9.8c0.1,0,0.2,0,0.3,0c2.5,0,4.9,0.9,6.6,2.7l-1.9,1.9c-1.3-1.2-3-1.9-4.8-1.9c-3.9,0.1-6.9,3.3-6.8,7.2
			c0.1,3.7,3.1,6.7,6.8,6.8c1.8,0.1,3.6-0.6,4.9-1.9c0.8-0.9,1.3-2.1,1.4-3.3H71V8.8h8.9c0.1,0.5,0.1,1.1,0.1,1.6
			c0.1,2.3-0.7,4.5-2.3,6.2C76,18.4,73.5,19.4,71,19.3"/>
	</g>
	<g>
		<path id="Path_20458" class="st2" d="M34.8,11.8C37,8.1,35.8,3.3,32,1.2c0,0-0.1,0-0.1-0.1C28.1-1.1,23.3,0.2,21.1,4
			c-0.1,0.2-0.2,0.3-0.3,0.5l-7.4,12.7c-0.2,0.3-0.3,0.5-0.5,0.8L5.2,31.3L19,39l7.7-13.2c0.2-0.3,0.3-0.5,0.5-0.8l7.4-12.7
			C34.6,12.2,34.7,12,34.8,11.8"/>
		<path id="Path_20459" class="st3" d="M19,38.9c-2.2,3.8-7,5.2-10.9,3c-3.8-2.2-5.2-7-3-10.9c2.2-3.8,7-5.2,10.9-3
			C19.8,30.3,21.2,35.1,19,38.9"/>
		<path id="Path_20460" class="st2" d="M48.8,14.3c-3.8-2.2-8.6-0.9-10.7,2.9l-7.9,13.6c-2.2,3.7-0.9,8.5,2.9,10.7l0,0
			c3.8,2.2,8.6,0.9,10.7-2.9l7.9-13.6C53.8,21.3,52.5,16.5,48.8,14.3L48.8,14.3"/>
	</g>
</g>
</svg>
