<?xml version="1.0" encoding="utf-8"?>
<!-- Generator: Adobe Illustrator 27.9.0, SVG Export Plug-In . SVG Version: 6.00 Build 0)  -->
<svg version="1.1" id="Layer_1" xmlns="http://www.w3.org/2000/svg" xmlns:xlink="http://www.w3.org/1999/xlink" x="0px" y="0px"
	 viewBox="0 0 153 43" style="enable-background:new 0 0 153 43;" xml:space="preserve">
<style type="text/css">
	.st0{fill:#454545;}
	.st1{fill:#818181;}
	.st2{fill-rule:evenodd;clip-rule:evenodd;fill:#454545;}
	.st3{fill-rule:evenodd;clip-rule:evenodd;fill:#818181;}
	.st4{opacity:0.269;}
	.st5{fill:#25F4EE;}
	.st6{fill:#FE2C55;}
	.st7{fill:#FFFFFF;}
</style>
<path id="Facebook-Logo.wine" class="st0" d="M9.7,35.9H3.9V21.5H0v-4.7h3.9v-3.3c0-3.9,1.7-6.8,7.5-6.8c1.2,0,3.1,0.2,3.1,0.2v4.3
	h-2c-2,0-2.8,0.6-2.8,2.3v3.2h4.8L14,21.5H9.7L9.7,35.9z M22.9,16.4c-0.1,0-0.2,0-0.3,0c-5.3,0-7.8,4-7.8,9.7
	c0,7.2,3.2,10.1,7.8,10.1c2.3,0.2,4.5-1.1,5.5-3.2v2.8h5.5V16.8h-5.5v2.9C27.3,17.7,25.2,16.4,22.9,16.4L22.9,16.4z M24.3,20.9
	c2.2,0,3.6,1.6,3.6,4.2l0,2.7c0,1.8-1.1,3.9-3.6,3.9c-3.8,0-3.7-4.1-3.7-5.5C20.6,21.6,22.6,20.9,24.3,20.9L24.3,20.9z M35.9,26.3
	c0-2.3-0.1-9.9,9.8-9.9c4,0,5.6,1.3,5.6,1.3l-1.3,4.1c-1.2-0.6-2.5-0.9-3.8-0.9c-2.8,0-4.5,1.6-4.5,4.4v2c-0.2,2.3,1.6,4.3,3.9,4.5
	c0.2,0,0.4,0,0.6,0c1.3,0,2.6-0.4,3.8-0.9l1.3,4c0,0-1.5,1.3-5.6,1.3C36.3,36.2,35.9,29.4,35.9,26.3L35.9,26.3z M83.4,16.4
	c5.3,0,7.8,4,7.8,9.7c0,7.2-3.2,10.1-7.8,10.1c-2.7,0-4.6-1.1-5.7-3.2v2.8h-5.4V7.3L78,6.8v12.7C78.9,17.3,81.6,16.4,83.4,16.4
	L83.4,16.4z M81.8,20.9c-2.2,0-3.8,1.6-3.8,4.2l0,2.7c-0.1,2,1.4,3.7,3.4,3.9c0.1,0,0.3,0,0.4,0c3.8,0,3.7-4.1,3.7-5.5
	C85.5,21.7,83.5,20.9,81.8,20.9L81.8,20.9z M61.2,16.4c-6.1,0-9.3,3.3-9.3,9.2v1.1c0,7.6,4.5,9.6,9.9,9.6c5.2,0,7.6-1.5,7.6-1.5
	L68.3,31c-1.8,0.7-3.8,1.1-5.8,1.2c-3.1,0-4.5-0.8-4.8-3.8h12.2v-3.1C69.9,18.8,66.3,16.4,61.2,16.4L61.2,16.4z M61.4,20.3
	c2.1,0,3.5,1.3,3.4,4.3h-7.1C57.8,21.5,59.3,20.3,61.4,20.3L61.4,20.3z M102.7,16.4c-6.2,0-9.5,3.5-9.5,9.8c0,8.6,5.7,10,9.5,10
	c5.7,0,9.4-3,9.4-9.9C112.1,19.1,107.9,16.4,102.7,16.4L102.7,16.4z M102.6,20.9c2.7,0,3.8,2,3.8,4.4v2c0,2.8-1.5,4.5-3.8,4.5
	c-2.2,0-3.7-1.5-3.7-4.5v-2C98.9,22.2,100.7,20.9,102.6,20.9L102.6,20.9z M123.6,16.4c-6.2,0-9.5,3.5-9.5,9.8c0,8.6,5.7,10,9.5,10
	c5.7,0,9.4-3,9.4-9.9C133,19.1,128.8,16.4,123.6,16.4L123.6,16.4z M123.5,20.9c2.7,0,3.8,2,3.8,4.4v2c0,2.8-1.5,4.5-3.8,4.5
	c-2.2,0-3.7-1.5-3.7-4.5v-2C119.8,22.2,121.6,20.9,123.5,20.9L123.5,20.9z M135.2,35.9V7.3l5.8-0.5v19.2l5.7-9.1h6.1l-6,9.5l6.2,9.6
	h-6.1l-5.9-9.3v9.3L135.2,35.9z"/>
</svg>
