<?xml version="1.0" encoding="utf-8"?>
<!-- Generator: Adobe Illustrator 27.9.0, SVG Export Plug-In . SVG Version: 6.00 Build 0)  -->
<svg version="1.1" id="Layer_1" xmlns="http://www.w3.org/2000/svg" xmlns:xlink="http://www.w3.org/1999/xlink" x="0px" y="0px"
	 viewBox="0 0 42.1 43" style="enable-background:new 0 0 42.1 43;" xml:space="preserve">
<style type="text/css">
	.st0{fill:#454545;}
	.st1{fill:#818181;}
	.st2{fill-rule:evenodd;clip-rule:evenodd;fill:#454545;}
	.st3{fill-rule:evenodd;clip-rule:evenodd;fill:#818181;}
	.st4{opacity:0.269;}
	.st5{fill:#25F4EE;}
	.st6{fill:#FE2C55;}
	.st7{fill:#FFFFFF;}
</style>
<path class="st0" d="M37,0c1.2,0,2.5,0,3.7,0c0,0,0,0.1-0.1,0.1c-2.4,2.8-4.8,5.6-7.2,8.3c-2.8,3.2-5.5,6.4-8.3,9.7
	c-0.1,0.1-0.1,0.1,0,0.2c1.6,2.3,3.2,4.6,4.7,6.9c1.7,2.5,3.4,5,5.1,7.5c2.2,3.2,4.4,6.4,6.6,9.5c0.2,0.3,0.4,0.5,0.5,0.8
	c0,0,0,0,0,0c0,0-0.1,0-0.1,0c-4.1,0-8.3,0-12.4,0c0,0-0.1-0.1-0.1-0.1c-0.3-0.4-0.6-0.8-0.8-1.2c-1.7-2.5-3.4-4.9-5.1-7.4
	c-1.8-2.6-3.6-5.2-5.4-7.8c0-0.1-0.1-0.1-0.1-0.2c0,0-0.1,0.1-0.1,0.1c-1.9,2.2-3.7,4.3-5.6,6.5c-2.8,3.3-5.6,6.5-8.4,9.8
	c-0.1,0.1-0.2,0.2-0.3,0.4c-1.2,0-2.4,0-3.6,0c0,0-0.1,0-0.1,0c0,0,0.1,0,0.1-0.1c2.6-3,5.2-6,7.8-9c2.8-3.3,5.7-6.6,8.5-9.9
	c0.1-0.1,0.1-0.1,0-0.2c-0.4-0.6-0.8-1.2-1.2-1.8c-1.6-2.4-3.2-4.7-4.9-7.1C8.7,12.6,7.1,10.3,5.5,8C3.8,5.6,2.1,3.1,0.4,0.6
	C0.3,0.4,0.1,0.2,0,0c0,0,0,0,0,0c0,0,0.1,0,0.1,0c4.1,0,8.3,0,12.4,0c0,0,0,0.1,0.1,0.1c1.4,2,2.8,4,4.1,6c2.1,3,4.1,6,6.2,9
	c0.2,0.2,0.3,0.5,0.5,0.7c0.1-0.1,0.1-0.2,0.2-0.2c3.3-3.8,6.5-7.6,9.8-11.4C34.6,2.8,35.8,1.4,37,0z M5.1,2.8c0,0,0.1,0.1,0.1,0.1
	c0.5,0.7,1,1.5,1.5,2.2c2.9,4.2,5.9,8.4,8.8,12.6c2.7,3.8,5.3,7.6,8,11.4c2.6,3.7,5.2,7.4,7.8,11.1c0,0.1,0.1,0.1,0.2,0.1
	c1.8,0,3.6,0,5.5,0c0,0,0.1,0,0.1,0c0,0,0-0.1-0.1-0.1c-2.4-3.4-4.8-6.8-7.1-10.2c-2.9-4.1-5.7-8.2-8.6-12.3
	c-3.5-4.9-6.9-9.9-10.4-14.9c0-0.1-0.1-0.1-0.2-0.1c-1.8,0-3.6,0-5.5,0C5.1,2.8,5.1,2.8,5.1,2.8z"/>
</svg>
